<svg xmlns="http://www.w3.org/2000/svg" xmlns:xlink="http://www.w3.org/1999/xlink" id="uuid-70e44de8-1e8b-4065-9088-d0e974ab62b5" viewBox="0 0 248.89 236.8" width="full-page-width">
  <defs>
    <clipPath id="uuid-d24c6635-6408-47ae-8884-896babc734ba">
      <rect width="248.89" height="236.8" style="fill:none;"/>
    </clipPath>
    <clipPath id="uuid-88666c8c-c59a-40b1-bb1b-84d207ebc981">
      <rect width="248.89" height="236.8" style="fill:none;"/>
    </clipPath>
    <clipPath id="uuid-ba86bee2-d2de-48be-b225-e67c4cba6792">
      <rect width="248.89" height="236.8" style="fill:none;"/>
    </clipPath>
    <clipPath id="uuid-eceb56ae-8f3c-4c03-91d1-e8d41659fceb">
      <rect width="248.89" height="236.8" style="fill:none;"/>
    </clipPath>
  </defs>
  <g style="clip-path:url(#uuid-d24c6635-6408-47ae-8884-896babc734ba);">
    <path d="m66.54,130.26h47.39V25.47h-47.39v104.79ZM.5,212.79h113.44V5.92M38.61,140.55l33.76,69.02-1.01.51-33.59-66.02.84-3.52Zm-1.01,4.24l-1.15,21.94.76,27.67.98,12.22m-11.37.58l4.05-.2,4.42-.58,2.89.2.2,2.51v1.26m14.5-1.45l-4.68-2.14-3.09-.57-3.27,1.35-3.08,2.31-1.35,1.73.58,1.18m-15.96-87.96l-.11-.24-.14-.27-.16-.3-.16-.3-.17-.33-.17-.33-.34-.67-.18-.34-.16-.31-.17-.31-.16-.3-.14-.28-.13-.26-.07-.11-.06-.11-.04-.1-.06-.09-.04-.09-.03-.07-.04-.07-.03-.06v-.04s-.03-.03-.03-.03h-.01v-.03m19.35,17.59h0v.06s-.01.04-.01.04v.06s-.03.07-.03.07v.07s-.03.09-.03.09l-.04.2-.04.23-.08.44-.04.21-.03.18v.08s-.03.06-.03.06v.07s-.03.04-.03.04v.03h0v.11s.03.09.03.09v.1s.04.13.04.13v.13s.04.16.04.16l.03.17.04.17.06.38.07.38.07.37.03.18.03.17.03.16.03.14v.13s.04.11.04.11v.1s.03.06.03.06v.04h0v.03h-.01s-.03.06-.03.06l-.03.04-.04.06-.04.07-.06.07-.06.09-.13.18-.13.18-.27.4-.13.17-.06.07-.06.09-.04.06-.03.06-.03.04-.03.03h-.01s-.01.01-.01.01h-.06s-.06.03-.06.03h-.08s-.1.03-.1.03l-.21.03h-.1s-.09.03-.09.03h-.07s-.06.03-.06.03h-.04v-.54s.01-.21.01-.21v-.45s.01-.21.01-.21v-.2s.01-.09.01-.09v-.26h-.01s-.01-.04-.01-.04l-.04-.06-.04-.06-.06-.08-.07-.09-.07-.1-.09-.11-.09-.11-.18-.26-.38-.51-.18-.24-.09-.11-.07-.11-.07-.09-.06-.08-.04-.06-.04-.06-.03-.04h-.01s-.01-.01-.01-.01h-.11s-.06.01-.06.01h-.14s-.16.03-.16.03l-.37.04h-.17s-.17.03-.17.03h-.14s-.06.01-.06.01h-.1s-.03.01-.03.01h-.03v-.03s-.04-.03-.04-.03l-.03-.04-.04-.06-.04-.07-.06-.07-.06-.1-.07-.08-.07-.11-.07-.11-.08-.13-.1-.13-.09-.13-.2-.3-.23-.31-.21-.33-.24-.34-.24-.34-.48-.7-.24-.35-.23-.33-.23-.33-.21-.3-.18-.28-.1-.13-.08-.13-.07-.11-.08-.11-.06-.1-.07-.08-.06-.09-.04-.07-.04-.06-.03-.04-.03-.03v-.03s-.01-.01-.01-.01v-.03s-.04-.06-.04-.06l-.03-.07-.03-.1-.06-.13-.04-.14-.06-.16-.07-.17-.06-.17-.07-.18-.3-.79-.14-.37-.07-.18-.06-.16-.06-.16-.06-.14-.04-.11-.03-.1-.03-.07v-.06s-.03-.01-.03-.01h-.09s-.04.01-.04.01h-.11s-.14.03-.14.03l-.31.04-.31.04h-.13s-.11.03-.11.03h-.08s-.03.01-.03.01h-.03s-.01-.03-.01-.03l-.03-.04-.04-.04-.04-.06-.06-.07-.06-.09-.07-.08-.09-.1-.09-.1-.08-.11-.1-.11-.21-.27-.23-.27-.24-.31-.26-.31-.27-.33-.54-.67-.52-.65-.26-.33-.25-.3-.23-.28-.21-.27-.1-.13-.1-.11-.08-.1-.07-.1-.07-.1-.07-.07-.06-.09-.06-.06-.04-.06-.03-.03-.03-.03v-.03s-.01-.01-.01-.01h-.01s-.01-.04-.01-.04l-.03-.06-.03-.04-.03-.07-.04-.09-.04-.08-.06-.09-.06-.1-.06-.11m4.49-36.17v.43s.01.13.01.13v.61s.01.17.01.17v.4s.01.41.01.41v.44s.03.45.03.45v.96s.04.96.04.96v.48s.01.45.01.45v.44s.03.41.03.41v.57s.01.17.01.17v.3s.01.14.01.14v.47s.01.04.01.04v.03h0v.47s-.01.11-.01.11v2.23s-.01.68-.01.68v.96s-.01.28-.01.28v1.12h0v.03h-.01v.28s-.03.17-.03.17v.2s-.03.23-.03.23v.24s-.03.27-.03.27v.27s-.04.3-.04.3l-.04.6-.03.59-.03.28v.28s-.03.26-.03.26l-.03.26v.21s-.03.2-.03.2v.24s-.01.07-.01.07v.1s-.01.03-.01.03v.03h0s.01.03.01.03h0s.01.04.01.04v.04s.04.04.04.04v.06s.04.06.04.06l.03.07.07.16.08.18.08.21.1.24.11.27.13.28.13.31.14.33.16.34.16.37.16.38.17.38.18.41.17.41.18.44.18.42.4.89.78,1.83.4.92.38.89.18.44.18.42.18.42.18.41.17.4.16.38.17.37.14.35.16.34.13.31.13.3.11.27.11.26.1.23.08.2.07.17.06.14.03.06.03.06v.04s.03.03.03.03v.03s.01.01.01.01h.01v.03h0s.01.04.01.04v.04s.04.04.04.04l.03.06v.06s.09.16.09.16l.07.17.1.21.09.21.11.24.11.26.23.55.24.55.24.54.1.27.11.24.1.24.09.2.08.2.07.16.03.07.03.06.03.06v.04s.03.04.03.04v.03s.01.01.01.01h.01-.01s-.03.06-.03.06l-.04.06-.06.07-.14.17-.14.17-.07.08-.04.07-.04.06-.03.03h-.01s.01.03.01.03h.01s.03.04.03.04l.03.04.03.04.04.04.04.07.06.06.11.16.14.16.14.2.17.2.17.21.17.23.37.47.38.48.18.23.17.23.17.21.17.2.14.18.13.17.11.14.06.07.04.04.03.06.04.04v.03s.04.03.04.03h.01v.03h.01v.06l.03.07.03.11.03.13.04.16.06.18.04.18.06.21.06.21.06.23.13.48.13.47.06.23.06.21.06.21.06.2.04.17.04.16.03.13.03.11.03.07v.03h.01m10.99-49.32l1.79,10.19,2.61,9.09-.54,18.23.48,6.49,1.02.62-.75,3.84v2.66l.98,2.45m-34.65-16.17v-.47s-.03-.34-.03-.34v-.35s-.04-.72-.04-.72v-.35s-.03-.34-.03-.34v-.31s-.01-.14-.01-.14v-.14s-.01-.13-.01-.13v-.21s-.01-.08-.01-.08v-.18h-.01v-.06s-.04-.03-.04-.03v-.06s-.06-.06-.06-.06l-.03-.07-.04-.09-.04-.1-.06-.1-.06-.11-.06-.11-.07-.13-.07-.14-.07-.14-.16-.31-.17-.34-.18-.37-.2-.38-.21-.4-.21-.43-.21-.44-.23-.44-.47-.92-.47-.94-.47-.92-.23-.44-.23-.44-.21-.44-.21-.41-.2-.38-.2-.38-.17-.34-.17-.33-.07-.16-.07-.14-.07-.13-.06-.13-.07-.13-.06-.1-.04-.1-.04-.1-.04-.07-.04-.07-.03-.07-.03-.04v-.04s-.03-.01-.03-.01h0s-.01-.03-.01-.03h0v-.37s-.01-.14-.01-.14v-.17s-.03-.18-.03-.18v-.41s-.03-.23-.03-.23v-.24s-.03-.26-.03-.26v-.27s-.03-.54-.03-.54l-.03-.55-.03-.57-.03-.55-.03-.52v-.26s-.03-.24-.03-.24v-.23s-.01-.21-.01-.21v-.2s-.03-.18-.03-.18v-.31s-.01-.11-.01-.11v-.1s-.01-.07-.01-.07v-.04h0v-.16s-.01-.1-.01-.1v-.11s-.03-.16-.03-.16v-.17s-.03-.18-.03-.18v-.21s-.03-.23-.03-.23l-.03-.24v-.26s-.03-.27-.03-.27l-.06-.55-.04-.58-.08-1.19-.04-.57-.03-.28v-.27s-.04-.26-.04-.26v-.24s-.04-.23-.04-.23v-.23s-.03-.2-.03-.2v-.17s-.03-.16-.03-.16v-.24s-.01-.08-.01-.08v-.06s-.01-.03-.01-.03v-.29s.01-.08.01-.08v-.52s.01-.27.01-.27v-.6s.01-.34.01-.34v-.36s.03-.37.03-.37v-.78s.03-.41.03-.41v-.84s.03-.84.03-.84l.03-.84v-.81s.01-.38.01-.38v-.37s.03-.35.03-.35v-.64s.01-.28.01-.28v-.48s.01-.11.01-.11v-.38s.01-.04.01-.04v-.07h0v-.1s.04-.08.04-.08l.03-.11.03-.13.04-.14.04-.17.06-.18.06-.2.06-.23.06-.23.07-.24.07-.26.07-.26.14-.54.14-.55.16-.55.14-.54.14-.51.07-.24.06-.24.06-.23.06-.2.06-.2.04-.17.04-.16.04-.13.03-.11v-.09s.04-.07.04-.07v-.03h0s.01-.01.01-.01h.01s.03-.03.03-.03l.03-.03.04-.03.11-.07.13-.09.16-.1.16-.1.18-.11.18-.13.38-.24.17-.13.18-.11.16-.1.13-.09.13-.07.04-.04h.04s.03-.04.03-.04h.03s.01-.03.01-.03m5.11,123.53l-.16-1.05-.16-1.05-.14-1.04-.08-.51-.07-.48-.07-.48-.06-.45-.07-.42-.06-.41-.06-.38-.03-.17v-.17s-.04-.16-.04-.16l-.03-.16v-.14s-.04-.13-.04-.13v-.11s-.03-.11-.03-.11v-.1s-.03-.09-.03-.09v-.08s-.01-.06-.01-.06v-.06s-.01-.04-.01-.04h0s-.01-.03-.01-.03h0v-39.46h0v-.03h0v-.82s-.01-.16-.01-.16v-.67s-.01-.18-.01-.18v-.84s-.01-.45-.01-.45v-.48s-.03-.5-.03-.5v-1.03s-.03-1.08-.03-1.08v-1.09s-.04-1.08-.04-1.08v-1.03s-.01-.5-.01-.5v-.48s-.03-.45-.03-.45v-.84s-.01-.2-.01-.2v-.67s-.01-.14-.01-.14v-.65s-.01-.06-.01-.06v-.13h0v-.23s-.01-.08-.01-.08v-.33s-.01-.13-.01-.13v-.27s-.03-.3-.03-.3v-.31s-.04-.64-.04-.64v-.31s-.03-.31-.03-.31v-.27s-.03-.26-.03-.26v-.31s-.01-.07-.01-.07v-.19h-.01v-.1s-.03-.06-.03-.06v-.07s-.03-.1-.03-.1v-.1s-.04-.11-.04-.11l-.03-.13-.03-.13-.03-.14-.06-.31-.07-.33-.13-.7-.07-.35-.07-.33-.07-.33-.06-.28-.03-.14v-.13s-.04-.11-.04-.11v-.1s-.04-.08-.04-.08v-.09s-.03-.06-.03-.06v-.07s-.01-.01-.01-.01h0v-.34s-.01-.11-.01-.11v-.41s-.01-.16-.01-.16v-.54s-.03-.38-.03-.38v-.4s-.04-.79-.04-.79v-.38s-.01-.35-.01-.35v-.17s-.01-.16-.01-.16v-.27s-.01-.13-.01-.13v-.27s-.01-.06-.01-.06v-.04h0v-.3s-.01-.1-.01-.1v-.37m31.96,77.87v.26s.03.26.03.26l.03.54.04.57.03.57.03.57.03.55v.27s.03.26.03.26v.24s.03.24.03.24v.21s.01.21.01.21v.18s.03.16.03.16v.27s.01.1.01.1v.13s.01.01.01.01h-1.16.01v.1s.03.07.03.07v.07s.04.08.04.08l.03.1.03.11.03.11.03.11.07.27.07.3.07.3.16.62.07.3.07.28.07.27.03.11.03.11.03.11.03.1v.07s.03.09.03.09v.06s.03.04.03.04v.03s.01.01.01.01h0s-.01.01-.01.01h-30.42s-.01-.06-.01-.06v-.06s-.03-.06-.03-.06l-.03-.08-.03-.1-.03-.1-.13-.43-.04-.2-.03-.08-.03-.07v-.06s-.03-.04-.03-.04h0v-.03h.01s.03-.03.03-.03l.03-.03.03-.03.04-.04.06-.04.11-.11.13-.11.16-.14.16-.14.17-.16.34-.31.17-.14.16-.14.14-.13.13-.13.1-.09.04-.04.04-.04.03-.03h.03s.01-.03.01-.03h.01s.01-.01.01-.01h.01s.04-.04.04-.04l.04-.03.06-.03.06-.04.07-.04.16-.1.17-.11.2-.13.21-.14.42-.27.21-.14.21-.13.2-.13.17-.11.16-.1.06-.04.06-.04.06-.03.04-.03h.03s.03-.03.03-.03h0s.01-.01.01-.01h0v-1.73h-.07s-.04-.01-.04-.01h-.04s-.13-.03-.13-.03h-.14s-.17-.04-.17-.04l-.2-.03-.2-.03-.23-.03-.43-.07-.21-.03-.2-.03h-.17s-.17-.04-.17-.04h-.13s-.06-.03-.06-.03h-.07s-.03-.01-.03-.01h-.03v-.11s-.03-.07-.03-.07v-.16s-.03-.1-.03-.1v-.11s-.04-.11-.04-.11v-.13s-.03-.14-.03-.14l-.03-.14-.03-.17v-.16s-.04-.18-.04-.18l-.06-.37-.06-.4-.07-.44-.06-.45-.07-.47-.07-.48-.07-.51-.09-.51m36.92-61.56v.1s-.04.11-.04.11l-.04.26-.06.28-.06.31-.07.31-.13.65-.06.31-.06.28-.06.27-.03.13v.11s-.04.11-.04.11v.09s-.03.09-.03.09v.07s-.03.06-.03.06v.04s-.01.03-.01.03h0s-.01.03-.01.03v.03l-.03.06-.03.09-.03.09-.04.1-.09.24-.1.24-.09.26-.04.1-.04.11-.03.09-.03.07v.04s-.03.04-.03.04h-.03s-.03.03-.03.03h-.06s-.06.04-.06.04l-.07.04-.18.07-.18.1-.2.08-.17.09-.07.03-.07.03-.04.03h-.04s-.01.03-.01.03h-.01s-.04-.01-.04-.01h-.1s-.14-.04-.14-.04l-.31-.04-.16-.03h-.11s-.06-.01-.06-.01h-.03s-.03-.01-.03-.01h-.01s-.01-.03-.01-.03v-.03s-.03-.04-.03-.04l-.03-.04-.03-.06-.07-.13-.07-.17-.1-.17-.1-.2-.11-.21-.21-.42-.11-.21-.1-.21-.1-.18-.09-.17-.08-.14-.03-.07-.03-.06-.03-.04v-.04s-.03-.03-.03-.03h-.01s-.01,0-.01,0v.07s-.03.06-.03.06l-.03.06v.07s-.07.16-.07.16l-.06.18-.07.21-.07.23-.14.48-.16.47-.07.23-.06.2-.06.18-.03.09-.03.07v.06s-.03.06-.03.06v.04s-.03.04-.03.04h-.01v.17s-.01.1-.01.1v.11s-.01.14-.01.14v.16s-.03.18-.03.18v.2s-.03.23-.03.23v.23s-.03.27-.03.27l-.03.27v.3s-.03.3-.03.3l-.03.33-.03.34v.34s-.04.37-.04.37l-.03.38-.03.38-.03.4v.41s-.04.42-.04.42l-.04.42-.06.88-.06.91-.06.92-.07.95-.07.96-.13,1.91-.06.96-.07.94-.06.94-.07.91-.06.86-.03.42-.03.42-.03.41-.03.4v.38s-.04.37-.04.37l-.03.37-.03.34v.34s-.04.31-.04.31v.31s-.04.28-.04.28v.27s-.03.26-.03.26v.24s-.03.21-.03.21v.2s-.03.17-.03.17v.16s-.01.14-.01.14v.11s-.01.09-.01.09v.07s-.01.03-.01.03v.04h0v1.57s-.01.33-.01.33v1.95s-.01.45-.01.45v2.01s-.01.55-.01.55v2.32s-.01.61-.01.61v2.54s-.03,1.3-.03,1.3v2.65s-.03,2.66-.03,2.66v2.61s-.01.64-.01.64v1.23s-.01.61-.01.61v1.76s-.01.55-.01.55v2.07s-.01.47-.01.47v2.06s-.01.33-.01.33v1.79h0v.43s.03.14.03.14v.35s.03.21.03.21v.21s.01.24.01.24m4.07-124.8v.03s.03.06.03.06l.03.07.03.09.03.08.04.11.04.11.04.13.11.27.1.3.13.33.11.33.25.67.11.33.11.3.06.14.04.13.04.13.04.11.04.1.03.09.03.08.03.06v.06s.03.03.03.03v.03s.01.01.01.01v.03s.01.03.01.03v.04s.03.04.03.04l.03.06.04.14.04.17.07.18.06.23.09.24.08.26.09.28.08.3.1.31.1.33.11.33.21.7.45,1.43.21.7.1.33.11.34.1.31.09.3.1.28.07.27.09.24.07.23.06.2.06.17.04.14.03.06v.06s.03.04.03.04v.04s.01.03.01.03h.01v.03h0v.1s.03.07.03.07v.09s.03.1.03.1v.11s.04.11.04.11v.14s.04.16.04.16l.03.17.03.17.03.2.04.2.03.21.04.21.04.23.03.24.04.26.04.26.1.54.08.57.1.59.1.61.11.62.1.64.11.65.21,1.3.23,1.29.1.64.1.62.1.6.1.59.1.55.08.52.04.26.04.24.04.24.03.23.04.21.03.2.03.2.04.18.03.17v.16s.04.14.04.14l.03.13v.11s.03.11.03.11v.09s.03.07.03.07v.06s.01.04.01.04v.03s.01.01.01.01v.04s-.01.04-.01.04v.17s-.03.11-.03.11v.14s-.01.14-.01.14l-.03.17v.18s-.03.2-.03.2v.21s-.04.23-.04.23v.24s-.04.27-.04.27l-.03.27v.28s-.04.28-.04.28l-.03.31-.03.31-.03.33-.03.34-.04.34-.03.35-.06.74-.07.75-.07.78-.07.79-.16,1.63-.14,1.63-.07.81-.07.79-.07.78-.07.77-.06.74-.04.35-.03.34-.03.34-.03.34-.03.31-.03.31-.03.3-.03.28-.03.28v.26s-.04.26-.04.26v.23s-.04.23-.04.23v.2s-.03.18-.03.18v.18s-.03.14-.03.14v.14s-.03.13-.03.13v.1s-.01.07-.01.07v.11s-.01.01-.01.01h0v.09s-.03.08-.03.08v.09s-.04.11-.04.11l-.03.13-.03.14-.03.16-.04.17-.03.18-.04.2-.04.2-.09.42-.09.44-.18.91-.09.44-.08.42-.04.2-.03.18-.04.18-.03.16-.03.16-.03.14-.03.11-.03.11v.09s-.03.07-.03.07v.04h-.01s-.01.01-.01.01h-.78v.11s.01.07.01.07v.18s.03.11.03.11v.27s.01.14.01.14l.03.33.03.35v.38s.04.38.04.38l.06.75v.37s.04.33.04.33v.16s.01.14.01.14v.14s.03.11.03.11v.21s.01.09.01.09v.13s0,.03,0,.03v.06s-.01.06-.01.06v.07s-.03.09-.03.09l-.03.1m-21.67-92.9h.34s.01-.01.01-.01h0s.03.03.03.03h.04s.07.04.07.04l.07.03.09.04.11.06.11.06.13.06.14.06.16.07.33.16.34.16.37.17.74.34.37.16.34.16.16.08.16.07.14.06.14.07.13.06.1.04.1.04.09.04.07.03.06.03h.04s.01.03.01.03h.01s.01.04.01.04v.04s.06.06.06.06l.03.07.04.07.06.1.04.09.06.11.13.23.14.24.16.27.3.55.16.28.16.26.13.26.13.23.06.1.06.1.04.08.04.09.04.06.03.06.03.04v.03s.03.01.03.01h0s-.01.03-.01.03v.11s-.01.09-.01.09v.11s-.04.13-.04.13v.13s-.03.16-.03.16l-.03.17-.03.18v.2s-.04.2-.04.2l-.06.42-.07.45-.06.47-.06.47-.07.45-.06.42-.03.21-.03.2v.18s-.04.17-.04.17v.17s-.04.14-.04.14v.13s-.03.11-.03.11v.1s-.03.07-.03.07v.1s-.01.01-.01.01v.09s-.03.07-.03.07v.1s-.04.1-.04.1v.11s-.04.14-.04.14l-.03.14-.03.16-.03.16-.07.35-.07.38-.09.4-.16.81-.07.38-.07.37-.03.17-.03.17-.03.16-.03.14-.03.13-.03.11v.11s-.03.09-.03.09v.07s-.03.04-.03.04v.04h-.01s-.01.04-.01.04h-.03s-.04.08-.04.08l-.07.1-.07.11-.1.13-.1.16-.1.17-.11.18-.1.2-.11.2-.1.21-.1.23-.09.23-.07.23-.06.23-.06.23v.23s-.03.21-.03.21v.23s-.04.23-.04.23l-.06.24-.06.24-.07.24-.17.47-.09.21-.1.23-.09.2-.1.18-.08.17-.07.16-.07.14-.07.1-.04.09v.03s-.03.03-.03.03h-.01v.03l.03.03.04.04.06.06.1.09.1.1.13.11.13.13.16.14.17.16.18.17.18.18.2.18.21.2.42.4.45.42.91.85.44.41.21.2.2.18.2.18.18.17.17.16.16.16.14.13.13.13.11.1.09.09.09.07.04.06.03.03h.03s.04.03.04.03h.07s.09.04.09.04l.11.04.13.04.14.04.16.06.17.06.2.06.2.07.21.07.44.14.47.16.98.33.48.16.45.14.21.09.21.06.2.07.18.06.17.06.16.06.14.04.13.04.1.04h.09s.06.04.06.04h.04s.01.01.01.01l.03.03h.04s.04.06.04.06l.07.04.07.04.09.06.1.07.11.07.11.07.13.09.25.18.28.18.61.4.3.2.3.2.27.18.27.17.11.07.11.09.1.06.09.06.09.06.06.04.06.04.04.03h.03s.01.03.01.03v.03m-38.53-1.65h.04s.04-.03.04-.03h.04s.04-.03.04-.03l.06-.03.07-.03.16-.06.18-.07.23-.08.23-.09.27-.1.28-.1.3-.11.33-.13.33-.13.34-.13.35-.13.37-.14,1.47-.55.74-.27.35-.14.35-.13.33-.13.33-.11.31-.11.28-.11.27-.1.24-.09.23-.08.18-.07.17-.07.07-.03h.06s.06-.04.06-.04h.06s.03-.03.03-.03h.03s.03-.01.03-.01h0s.01-.01.01-.01v-.03s.06-.03.06-.03l.04-.06.06-.07.09-.08.08-.1.08-.11.11-.13.11-.13.11-.14.13-.14.14-.16.28-.33.28-.34.31-.35.3-.35.3-.34.28-.33.13-.14.13-.16.11-.13.11-.13.1-.13.1-.1.09-.1.07-.08.06-.06.04-.06.03-.03v-.03s.01-.01.01-.01h.01v-.09s.03-.04.03-.04l.04-.13.04-.14.04-.16.06-.18.13-.38.13-.41.06-.18.06-.18.04-.17.04-.14.04-.11v-.06s.03-.04.03-.04v-.03s.01-.01.01-.01h0v-.06s-.03-.03-.03-.03v-.06s-.04-.04-.04-.04l-.03-.07-.03-.07-.04-.09-.07-.18-.1-.21-.1-.23-.1-.24-.23-.5-.1-.24-.1-.23-.1-.23-.09-.18-.04-.09-.03-.08-.03-.07-.03-.06-.03-.06v-.04s-.03-.03-.03-.03v-.03h-.01s-.01-.06-.01-.06l-.03-.06-.04-.08-.04-.11-.06-.13-.07-.14-.07-.16-.07-.18-.09-.18-.09-.2-.1-.21-.08-.23-.21-.47-.21-.48-.21-.5-.21-.5-.21-.48-.1-.23-.1-.23-.1-.21-.09-.2-.09-.2-.07-.17-.07-.17-.07-.14-.06-.13-.04-.11-.04-.08-.03-.07v-.04s-.03-.01-.03-.01h0v-.13s.01-.06.01-.06v-.14s.01-.17.01-.17v-.18s.03-.21.03-.21l.03-.45.04-.47v-.21s.03-.21.03-.21v-.35s.03-.07.03-.07v-.19s.01-.03.01-.03h0s.01-.04.01-.04l.03-.04.03-.07.06-.08.06-.11.07-.11.07-.14.09-.16.09-.17.1-.17.11-.18.1-.2.24-.42.24-.44.5-.89.24-.44.23-.41.11-.2.1-.18.1-.18.09-.17.08-.16.09-.14.07-.11.06-.11.04-.08.04-.07.03-.06h.01v-.03h.01s.01-.03.01-.03l.04-.03.04-.04.04-.04.07-.06.07-.07.07-.07.08-.09.18-.17.21-.2.21-.2.47-.43.23-.23.23-.2.21-.2.18-.18.1-.09.07-.07.09-.07.06-.06.06-.06.06-.04.03-.04.03-.03h.03s.01-.01.01-.01h.23s.1-.01.1-.01h.24s.14-.01.14-.01h.31s.16-.01.16-.01h.35s.38-.03.38-.03l.38-.03.76-.03h.37s.34-.03.34-.03h.3s.14-.01.14-.01h.24m65.01,84.26v82.53" style="fill:none; stroke:#231f20; stroke-linecap:round; stroke-linejoin:round; stroke-width:.99px;"/>
  </g>
  <path d="m76.99,198.92v-3.66m0,11.82v-6.12m0,11.83v-3.67m47-13.86h4.12m-12.29,0h6.12m-14.29,0h6.12m-14.29,0h6.12m-14.29,0h6.12m-14.29,0h6.12m-12.3,0h4.14" style="fill:none; stroke:#231f20; stroke-linecap:round; stroke-linejoin:round; stroke-width:.5px;"/>
  <path d="m107.89,115.38h-.38s-.38.07-.38.07l-.37.09-.35.13-.35.16-.34.18-.31.21-.3.24-.27.27-.24.3-.21.31-.18.34-.16.36-.13.35-.08.37-.06.38v.38s0,.38,0,.38l.06.38.08.37.13.35.16.35.18.34.21.31.24.3.27.27.3.24.31.21.34.18.35.16.35.13.37.08.38.06h.38s.38,0,.38,0l.38-.06.37-.08.35-.13.35-.16.34-.18.31-.21.3-.24.27-.27.24-.3.21-.31.18-.34.16-.35.13-.35.09-.37.06-.38v-.38s0-.38,0-.38l-.06-.38-.09-.37-.13-.35-.16-.35-.18-.34-.21-.31-.24-.3-.27-.27-.3-.24-.31-.21-.34-.18-.35-.16-.35-.13-.37-.09-.38-.06h-.38Zm-35.29-.01h-.38s-.38.07-.38.07l-.37.09-.35.13-.35.16-.34.18-.31.21-.3.24-.27.27-.24.3-.21.31-.18.34-.16.36-.13.35-.08.37-.06.38v.38s0,.38,0,.38l.06.38.08.37.13.35.16.35.18.34.21.31.24.3.27.27.3.24.31.21.34.18.35.16.35.13.37.08.38.06h.38s.38,0,.38,0l.38-.06.37-.08.35-.13.35-.16.34-.18.31-.21.3-.24.27-.27.24-.3.21-.31.18-.34.16-.35.13-.35.08-.37.06-.38v-.38s0-.38,0-.38l-.06-.38-.08-.37-.13-.35-.16-.35-.18-.34-.21-.31-.24-.3-.27-.27-.3-.24-.31-.21-.34-.18-.35-.16-.35-.13-.37-.09-.38-.06h-.39Z" style="fill:none; stroke:#231f20; stroke-linecap:round; stroke-linejoin:bevel; stroke-width:.99px;"/>
  <path d="m154.64,31.14v93.46m-36.74,5.67h40.99M117.91,25.47h40.99m-55.39,98.19h4.38m-12.54,0h6.12m-14.29,0h6.12m-14.29,0h6.12m-12.54,0h4.38m26.53-8.29h4.38m-12.54,0h6.12m-14.29,0h6.12m-14.29,0h6.12m-12.54,0h4.38" style="fill:none; stroke:#231f20; stroke-linecap:round; stroke-linejoin:round; stroke-width:.5px;"/>
  <polyline points="153.18 31.22 154.64 25.75 154.64 31.22" style="fill:#231f20;"/>
  <polyline points="154.64 31.22 154.64 25.75 156.12 31.22" style="fill:#231f20;"/>
  <polyline points="156.12 124.51 154.64 129.98 154.64 124.51" style="fill:#231f20;"/>
  <polyline points="154.64 124.51 154.64 129.98 153.18 124.51" style="fill:#231f20;"/>
  <path d="m72.21,97.17h36.06m5.67,29.12v-33.38m-47.4,33.38v-33.38" style="fill:none; stroke:#231f20; stroke-linecap:round; stroke-linejoin:round; stroke-width:.5px;"/>
  <polyline points="72.3 98.64 66.83 97.17 72.3 97.17" style="fill:#231f20;"/>
  <polyline points="72.3 97.17 66.83 97.17 72.3 95.71" style="fill:#231f20;"/>
  <polyline points="108.18 95.71 113.65 97.17 108.18 97.17" style="fill:#231f20;"/>
  <polyline points="108.18 97.17 113.65 97.17 108.18 98.64" style="fill:#231f20;"/>
  <path d="m89.16,66.43l.13-.24.08-.24.06-.26.03-.27v-.26s-.06-.26-.06-.26l-.09-.26-.11-.24-.14-.21-.17-.2-.2-.18-.21-.14-.23-.11-.26-.08-.26-.06h-.27m0-.03h-.28s-.3.09-.3.09l-.27.1-.27.14-.24.17-.2.21-.18.24-.14.26-.1.28" style="fill:none; stroke:#231f20; stroke-linecap:round; stroke-linejoin:bevel; stroke-width:.99px;"/>
  <polyline points="89.16 66.41 85.49 72.32 89.46 72.32" style="fill:none; stroke:#231f20; stroke-linecap:round; stroke-linejoin:round; stroke-width:.99px;"/>
  <polyline points="90.64 91.3 89.72 96.89 89.18 91.44" style="fill:#231f20;"/>
  <polyline points="89.18 91.44 89.72 96.89 87.72 91.59" style="fill:#231f20;"/>
  <line x1="89.19" y1="91.53" x2="87.66" y2="75.65" style="fill:none; stroke:#231f20; stroke-linecap:round; stroke-linejoin:round; stroke-width:.5px;"/>
  <path d="m193.49,86.68l.13-.24.08-.24.06-.26.03-.27v-.26s-.06-.26-.06-.26l-.09-.26-.11-.24-.14-.21-.17-.2-.2-.18-.21-.14-.23-.11-.26-.08-.26-.06h-.27m0-.02h-.28s-.3.09-.3.09l-.27.1-.27.14-.24.17-.2.21-.18.24-.14.26-.1.28" style="fill:none; stroke:#231f20; stroke-linecap:round; stroke-linejoin:bevel; stroke-width:.99px;"/>
  <polyline points="193.5 86.68 189.83 92.59 193.8 92.59" style="fill:none; stroke:#231f20; stroke-linecap:round; stroke-linejoin:round; stroke-width:.99px;"/>
  <polyline points="158.54 70.61 154.85 66.31 159.38 69.4" style="fill:#231f20;"/>
  <polyline points="159.38 69.4 154.86 66.31 160.2 68.2" style="fill:#231f20;"/>
  <line x1="159.29" y1="69.35" x2="186.74" y2="88.13" style="fill:none; stroke:#231f20; stroke-linecap:round; stroke-linejoin:round; stroke-width:.5px;"/>
  <g style="clip-path:url(#uuid-88666c8c-c59a-40b1-bb1b-84d207ebc981);">
    <polyline points="71.91 9.42 71.91 .5 69.93 2.48" style="fill:none; stroke:#231f20; stroke-linecap:round; stroke-linejoin:round; stroke-width:.99px;"/>
  </g>
  <polygon points="88.71 41.78 88.96 41.64 88.11 40.42 88.71 41.78" style="fill:#231f20;"/>
  <polyline points="88.96 41.64 89.18 41.44 88.11 40.42" style="fill:#231f20;"/>
  <polyline points="89.18 41.44 89.36 41.21 88.11 40.42" style="fill:#231f20;"/>
  <polygon points="89.36 41.21 89.49 40.96 88.11 40.42 89.36 41.21" style="fill:#231f20;"/>
  <polygon points="89.49 40.96 89.57 40.68 88.11 40.42 89.49 40.96" style="fill:#231f20;"/>
  <polygon points="88.11 40.42 89.57 40.68 89.6 40.39 88.11 40.42" style="fill:#231f20;"/>
  <polygon points="88.11 40.42 89.6 40.39 89.56 40.09 88.11 40.42" style="fill:#231f20;"/>
  <polygon points="88.11 40.42 89.56 40.09 89.47 39.83 88.11 40.42" style="fill:#231f20;"/>
  <polygon points="88.11 40.42 89.47 39.83 89.33 39.57 88.11 40.42" style="fill:#231f20;"/>
  <polyline points="89.33 39.57 89.14 39.34 88.12 40.42" style="fill:#231f20;"/>
  <polyline points="89.13 39.34 88.91 39.16 88.11 40.42" style="fill:#231f20;"/>
  <polygon points="88.11 40.42 88.91 39.16 88.65 39.03 88.11 40.42" style="fill:#231f20;"/>
  <polygon points="88.11 40.42 88.65 39.03 88.37 38.95 88.11 40.42" style="fill:#231f20;"/>
  <polygon points="88.11 40.42 88.37 38.95 88.07 38.93 88.11 40.42" style="fill:#231f20;"/>
  <polygon points="87.79 38.96 88.11 40.42 88.07 38.93 87.79 38.96" style="fill:#231f20;"/>
  <polygon points="87.51 39.06 88.11 40.42 87.79 38.96 87.51 39.06" style="fill:#231f20;"/>
  <polygon points="87.26 39.2 88.11 40.42 87.51 39.06 87.26 39.2" style="fill:#231f20;"/>
  <polyline points="87.26 39.2 87.04 39.39 88.11 40.42" style="fill:#231f20;"/>
  <polyline points="87.04 39.39 86.85 39.61 88.11 40.42" style="fill:#231f20;"/>
  <polygon points="86.73 39.87 88.11 40.42 86.85 39.61 86.73 39.87" style="fill:#231f20;"/>
  <polygon points="86.64 40.15 88.11 40.42 86.73 39.87 86.64 40.15" style="fill:#231f20;"/>
  <polygon points="86.63 40.45 88.11 40.42 86.64 40.15 86.63 40.45" style="fill:#231f20;"/>
  <polygon points="86.63 40.45 86.66 40.73 88.12 40.42 86.63 40.45" style="fill:#231f20;"/>
  <polygon points="86.65 40.73 86.74 41.02 88.11 40.42 86.65 40.73" style="fill:#231f20;"/>
  <polygon points="86.74 41.02 86.88 41.27 88.11 40.42 86.74 41.02" style="fill:#231f20;"/>
  <polyline points="86.88 41.27 87.08 41.48 88.11 40.42" style="fill:#231f20;"/>
  <polyline points="87.08 41.48 87.31 41.67 88.11 40.42" style="fill:#231f20;"/>
  <polygon points="87.31 41.67 87.56 41.8 88.11 40.42 87.31 41.67" style="fill:#231f20;"/>
  <polygon points="87.56 41.8 87.84 41.88 88.11 40.42 87.56 41.8" style="fill:#231f20;"/>
  <polygon points="87.84 41.88 88.14 41.91 88.11 40.42 87.84 41.88" style="fill:#231f20;"/>
  <polygon points="88.14 41.91 88.43 41.87 88.11 40.42 88.14 41.91" style="fill:#231f20;"/>
  <polygon points="88.43 41.87 88.71 41.78 88.12 40.42 88.43 41.87" style="fill:#231f20;"/>
  <line x1="88.11" y1="40.42" x2="74.75" y2="9.92" style="fill:none; stroke:#231f20; stroke-linecap:round; stroke-linejoin:round; stroke-width:.5px;"/>
  <line x1="169.45" y1="151.38" x2="171.44" y2="151.38" style="fill:none; stroke:#231f20; stroke-linecap:round; stroke-linejoin:round; stroke-width:.99px;"/>
  <polyline points="171.44 155.34 171.71 155.32 171.98 155.26 172.22 155.17 172.46 155.05 172.69 154.9 172.88 154.71 173.05 154.5 173.18 154.27 173.29 154.03 173.37 153.76 173.41 153.49 173.41 153.24 173.37 152.97 173.29 152.7 173.18 152.46 173.05 152.23 172.88 152.02 172.69 151.83 172.46 151.68 172.22 151.56 171.98 151.46 171.71 151.41 171.44 151.39" style="fill:none; stroke:#231f20; stroke-linecap:round; stroke-linejoin:bevel; stroke-width:.99px;"/>
  <line x1="171.44" y1="155.35" x2="170.45" y2="155.35" style="fill:none; stroke:#231f20; stroke-linecap:round; stroke-linejoin:round; stroke-width:.99px;"/>
  <polyline points="173.41 157.33 173.39 157.05 173.32 156.78 173.22 156.51 173.1 156.27 172.93 156.04 172.73 155.85 172.5 155.68 172.26 155.55 171.99 155.45 171.72 155.38 171.44 155.36" style="fill:none; stroke:#231f20; stroke-linecap:round; stroke-linejoin:bevel; stroke-width:.99px;"/>
  <line x1="173.42" y1="157.33" x2="173.42" y2="158.33" style="fill:none; stroke:#231f20; stroke-linecap:round; stroke-linejoin:round; stroke-width:.99px;"/>
  <polyline points="171.44 160.3 171.72 160.28 171.99 160.21 172.26 160.11 172.5 159.99 172.73 159.82 172.93 159.62 173.1 159.39 173.22 159.15 173.32 158.88 173.39 158.61 173.41 158.33" style="fill:none; stroke:#231f20; stroke-linecap:round; stroke-linejoin:bevel; stroke-width:.99px;"/>
  <line x1="171.44" y1="160.31" x2="169.45" y2="160.31" style="fill:none; stroke:#231f20; stroke-linecap:round; stroke-linejoin:round; stroke-width:.99px;"/>
  <polyline points="96.97 128.99 94.52 123.87 98.09 128.02" style="fill:#231f20;"/>
  <polyline points="98.09 128.02 94.52 123.87 99.2 127.07" style="fill:#231f20;"/>
  <polyline points="98.04 127.97 121.97 155.85 166.62 155.85" style="fill:none; stroke:#231f20; stroke-linecap:round; stroke-linejoin:round; stroke-width:.5px;"/>
  <line x1="170.09" y1="216.18" x2="172.07" y2="216.18" style="fill:none; stroke:#231f20; stroke-linecap:round; stroke-linejoin:round; stroke-width:.99px;"/>
  <polyline points="172.08 216.17 172.36 216.15 172.63 216.08 172.9 215.98 173.14 215.85 173.37 215.68 173.56 215.49 173.73 215.26 173.86 215.02 173.96 214.75 174.03 214.48 174.04 214.2" style="fill:none; stroke:#231f20; stroke-linecap:round; stroke-linejoin:bevel; stroke-width:.99px;"/>
  <line x1="174.06" y1="214.2" x2="174.06" y2="213.2" style="fill:none; stroke:#231f20; stroke-linecap:round; stroke-linejoin:round; stroke-width:.99px;"/>
  <polyline points="174.05 213.2 174.03 212.92 173.96 212.65 173.86 212.38 173.73 212.14 173.56 211.91 173.37 211.72 173.14 211.55 172.9 211.42 172.63 211.32 172.36 211.25 172.08 211.23" style="fill:none; stroke:#231f20; stroke-linecap:round; stroke-linejoin:bevel; stroke-width:.99px;"/>
  <polyline points="172.08 211.22 170.09 211.22 170.09 207.25 173.56 207.25" style="fill:none; stroke:#231f20; stroke-linecap:round; stroke-linejoin:round; stroke-width:.99px;"/>
  <polyline points="86.94 198.8 82.43 195.37 87.49 197.44" style="fill:#231f20;"/>
  <polyline points="87.49 197.44 82.43 195.37 88.04 196.1" style="fill:#231f20;"/>
  <polyline points="87.41 197.42 122.3 211.72 167.26 211.72" style="fill:none; stroke:#231f20; stroke-linecap:round; stroke-linejoin:round; stroke-width:.5px;"/>
  <polygon points="163.4 131.74 163.32 131.77 163.24 131.82 163.19 131.89 163.16 131.98 163.15 132.09 163.15 132.19 163.17 132.28 163.23 132.35 163.3 132.4 163.39 132.43 163.5 132.45 166.44 132.45 166.52 132.42 166.59 132.36 166.65 132.29 166.68 132.21 166.69 132.09 166.69 131.99 166.66 131.91 166.6 131.84 166.53 131.78 166.45 131.75 166.33 131.74 163.4 131.74" style="fill:#231f20;"/>
  <polyline points="163.5 127.84 163.4 127.84 163.32 127.87 163.25 127.93 163.19 128 163.16 128.08 163.15 128.19 163.15 128.22 163.16 128.32 163.22 128.41 163.27 128.48 163.37 128.52 165.33 129.26 163.37 130 163.36 130 163.26 130.05 163.2 130.12 163.16 130.21 163.15 130.32 163.15 130.38 163.19 130.48 163.25 130.56 163.3 130.62 163.4 130.66 163.5 130.68 163.52 130.68 163.63 130.65 166.46 129.58 166.48 129.58 166.58 129.53 166.63 129.46 166.68 129.37 166.69 129.26 166.69 129.23 166.68 129.13 166.62 129.05 166.56 128.97 166.46 128.93 163.63 127.87 163.62 127.85" style="fill:#231f20;"/>
  <line x1="168.46" y1="126.07" x2="169.88" y2="126.07" style="fill:none; stroke:#231f20; stroke-linecap:round; stroke-linejoin:round; stroke-width:.71px;"/>
  <polyline points="169.88 128.89 170.11 128.87 170.33 128.82 170.55 128.72 170.74 128.59 170.91 128.43 171.06 128.25 171.17 128.05 171.24 127.83 171.28 127.6 171.28 127.37 171.24 127.14 171.17 126.92 171.06 126.72 170.91 126.54 170.74 126.38 170.55 126.25 170.33 126.15 170.11 126.1 169.88 126.08" style="fill:none; stroke:#231f20; stroke-linecap:round; stroke-linejoin:bevel; stroke-width:.71px;"/>
  <line x1="169.88" y1="128.9" x2="169.17" y2="128.9" style="fill:none; stroke:#231f20; stroke-linecap:round; stroke-linejoin:round; stroke-width:.71px;"/>
  <polyline points="171.28 130.32 171.25 130.08 171.2 129.84 171.1 129.61 170.95 129.41 170.78 129.24 170.59 129.1 170.36 129 170.12 128.95 169.88 128.92" style="fill:none; stroke:#231f20; stroke-linecap:round; stroke-linejoin:bevel; stroke-width:.71px;"/>
  <line x1="171.3" y1="130.32" x2="171.3" y2="131.03" style="fill:none; stroke:#231f20; stroke-linecap:round; stroke-linejoin:round; stroke-width:.71px;"/>
  <polyline points="169.88 132.43 170.12 132.4 170.36 132.35 170.59 132.25 170.79 132.1 170.96 131.93 171.1 131.72 171.2 131.51 171.25 131.27 171.28 131.03" style="fill:none; stroke:#231f20; stroke-linecap:round; stroke-linejoin:bevel; stroke-width:.71px;"/>
  <line x1="169.88" y1="132.45" x2="168.46" y2="132.45" style="fill:none; stroke:#231f20; stroke-linecap:round; stroke-linejoin:round; stroke-width:.71px;"/>
  <path d="m179.09,132.09l.13.13.14.11.17.07.18.04h.17l.18-.04.17-.07.14-.11.13-.13m0,0l.21-.44.17-.47.14-.47.1-.48.07-.48v-.5s0-.5,0-.5l-.07-.48-.1-.48-.14-.47-.17-.47-.21-.44m0,0l-.13-.13-.14-.11-.17-.07-.18-.04h-.17l-.18.04-.17.07-.14.11-.13.13m0,0l-.21.44-.17.47-.14.47-.1.48-.07.48v.5s0,.5,0,.5l.07.48.1.48.14.47.17.47.21.44m-4.96,0l.13.13.14.11.17.07.18.04h.17l.18-.04.17-.07.14-.11.13-.13m0,0l.21-.44.17-.47.14-.47.1-.48.07-.48v-.5s0-.5,0-.5l-.07-.48-.1-.48-.14-.47-.17-.47-.21-.44m0,0l-.13-.13-.14-.11-.17-.07-.18-.04h-.17l-.18.04-.17.07-.14.11-.13.13m0,0l-.21.44-.17.47-.14.47-.1.48-.07.48v.5s0,.5,0,.5l.07.48.1.48.14.47.17.47.21.44" style="fill:none; stroke:#231f20; stroke-linecap:round; stroke-linejoin:bevel; stroke-width:.71px;"/>
  <line x1="186.53" y1="128.19" x2="187.76" y2="128.19" style="fill:none; stroke:#231f20; stroke-linecap:round; stroke-linejoin:round; stroke-width:.71px;"/>
  <polyline points="189 129.43 188.98 129.21 188.93 129 188.83 128.8 188.71 128.63 188.56 128.48 188.39 128.36 188.19 128.27 187.98 128.21 187.77 128.19" style="fill:none; stroke:#231f20; stroke-linecap:round; stroke-linejoin:bevel; stroke-width:.71px;"/>
  <polyline points="189.01 129.43 189.01 132.45 187.24 132.45" style="fill:none; stroke:#231f20; stroke-linecap:round; stroke-linejoin:round; stroke-width:.71px;"/>
  <polyline points="187.24 130.33 187.04 130.35 186.86 130.41 186.69 130.49 186.53 130.6 186.41 130.75 186.31 130.92 186.24 131.1 186.19 131.28 186.19 131.48 186.24 131.67 186.31 131.85 186.41 132.02 186.53 132.16 186.69 132.27 186.86 132.36 187.04 132.42 187.24 132.43" style="fill:none; stroke:#231f20; stroke-linecap:round; stroke-linejoin:bevel; stroke-width:.71px;"/>
  <path d="m191.14,126.07v6.38h1.59m-5.48-2.13h1.77" style="fill:none; stroke:#231f20; stroke-linecap:round; stroke-linejoin:round; stroke-width:.71px;"/>
  <polyline points="192.73 132.43 192.94 132.42 193.15 132.36 193.35 132.26 193.52 132.15 193.68 131.99 193.79 131.81 193.89 131.62 193.94 131.41 193.96 131.2" style="fill:none; stroke:#231f20; stroke-linecap:round; stroke-linejoin:bevel; stroke-width:.71px;"/>
  <line x1="193.97" y1="131.2" x2="193.97" y2="129.43" style="fill:none; stroke:#231f20; stroke-linecap:round; stroke-linejoin:round; stroke-width:.71px;"/>
  <polyline points="193.96 129.43 193.94 129.21 193.89 129 193.79 128.8 193.68 128.63 193.52 128.48 193.35 128.36 193.15 128.27 192.94 128.21 192.73 128.19" style="fill:none; stroke:#231f20; stroke-linecap:round; stroke-linejoin:bevel; stroke-width:.71px;"/>
  <line x1="192.73" y1="128.19" x2="191.14" y2="128.19" style="fill:none; stroke:#231f20; stroke-linecap:round; stroke-linejoin:round; stroke-width:.71px;"/>
  <polyline points="198.92 129.61 198.9 129.38 198.85 129.16 198.75 128.94 198.62 128.75 198.46 128.58 198.28 128.43 198.08 128.32 197.86 128.25 197.63 128.21 197.4 128.21 197.17 128.25 196.95 128.32 196.75 128.43 196.57 128.58 196.41 128.75 196.28 128.94 196.18 129.16 196.13 129.38 196.11 129.61" style="fill:none; stroke:#231f20; stroke-linecap:round; stroke-linejoin:bevel; stroke-width:.71px;"/>
  <line x1="198.93" y1="129.61" x2="198.93" y2="131.03" style="fill:none; stroke:#231f20; stroke-linecap:round; stroke-linejoin:round; stroke-width:.71px;"/>
  <polyline points="196.11 131.03 196.13 131.26 196.18 131.48 196.28 131.69 196.41 131.89 196.57 132.06 196.75 132.2 196.95 132.32 197.17 132.39 197.4 132.43 197.63 132.43 197.86 132.39 198.08 132.32 198.28 132.2 198.46 132.06 198.62 131.89 198.75 131.69 198.85 131.48 198.9 131.25 198.92 131.03" style="fill:none; stroke:#231f20; stroke-linecap:round; stroke-linejoin:bevel; stroke-width:.71px;"/>
  <path d="m208.85,132.45h-1.77m-6.02-4.25l1.42,4.25,1.42-4.25m-7.8,2.83v-1.42" style="fill:none; stroke:#231f20; stroke-linecap:round; stroke-linejoin:round; stroke-width:.71px;"/>
  <polyline points="206.03 131.38 206.05 131.58 206.12 131.78 206.2 131.96 206.35 132.12 206.5 132.26 206.69 132.35 206.88 132.42 207.08 132.43" style="fill:none; stroke:#231f20; stroke-linecap:round; stroke-linejoin:bevel; stroke-width:.71px;"/>
  <line x1="206.02" y1="131.38" x2="206.02" y2="129.61" style="fill:none; stroke:#231f20; stroke-linecap:round; stroke-linejoin:round; stroke-width:.71px;"/>
  <polyline points="208.84 129.61 208.83 129.38 208.77 129.16 208.67 128.94 208.54 128.75 208.39 128.58 208.2 128.43 208 128.32 207.78 128.25 207.55 128.21 207.32 128.21 207.1 128.25 206.87 128.32 206.67 128.43 206.49 128.58 206.33 128.75 206.2 128.94 206.1 129.16 206.05 129.38 206.03 129.61" style="fill:none; stroke:#231f20; stroke-linecap:round; stroke-linejoin:bevel; stroke-width:.71px;"/>
  <path d="m214.17,134.57h1.23m-6.55-4.96v.71h-2.83" style="fill:none; stroke:#231f20; stroke-linecap:round; stroke-linejoin:round; stroke-width:.71px;"/>
  <polyline points="215.4 134.56 215.61 134.54 215.83 134.49 216.03 134.39 216.2 134.27 216.35 134.12 216.46 133.93 216.56 133.75 216.62 133.54 216.63 133.32" style="fill:none; stroke:#231f20; stroke-linecap:round; stroke-linejoin:bevel; stroke-width:.71px;"/>
  <polyline points="216.65 133.32 216.65 128.19 215.05 128.19" style="fill:none; stroke:#231f20; stroke-linecap:round; stroke-linejoin:round; stroke-width:.71px;"/>
  <polyline points="215.05 128.19 214.84 128.21 214.62 128.27 214.44 128.36 214.26 128.48 214.1 128.63 213.99 128.8 213.89 129 213.83 129.21 213.82 129.43" style="fill:none; stroke:#231f20; stroke-linecap:round; stroke-linejoin:bevel; stroke-width:.71px;"/>
  <line x1="213.81" y1="129.43" x2="213.81" y2="131.2" style="fill:none; stroke:#231f20; stroke-linecap:round; stroke-linejoin:round; stroke-width:.71px;"/>
  <polyline points="213.81 131.2 213.83 131.41 213.89 131.62 213.98 131.81 214.1 131.99 214.25 132.15 214.44 132.26 214.62 132.36 214.83 132.42 215.05 132.43" style="fill:none; stroke:#231f20; stroke-linecap:round; stroke-linejoin:bevel; stroke-width:.71px;"/>
  <path d="m218.78,132.45v-4.25h2.13v.71m-5.85,3.54h1.6" style="fill:none; stroke:#231f20; stroke-linecap:round; stroke-linejoin:round; stroke-width:.71px;"/>
  <polyline points="225.85 129.61 225.83 129.38 225.78 129.16 225.68 128.94 225.55 128.75 225.39 128.58 225.21 128.43 225.01 128.32 224.79 128.25 224.56 128.21 224.33 128.21 224.1 128.25 223.88 128.32 223.68 128.43 223.5 128.58 223.34 128.75 223.21 128.94 223.11 129.16 223.06 129.38 223.04 129.61" style="fill:none; stroke:#231f20; stroke-linecap:round; stroke-linejoin:bevel; stroke-width:.71px;"/>
  <line x1="225.86" y1="129.61" x2="225.86" y2="131.03" style="fill:none; stroke:#231f20; stroke-linecap:round; stroke-linejoin:round; stroke-width:.71px;"/>
  <polyline points="223.04 131.03 223.06 131.26 223.11 131.48 223.21 131.69 223.34 131.89 223.5 132.06 223.68 132.2 223.88 132.32 224.1 132.39 224.33 132.43 224.56 132.43 224.79 132.39 225.01 132.32 225.21 132.2 225.39 132.06 225.55 131.89 225.68 131.69 225.78 131.48 225.83 131.25 225.85 131.03" style="fill:none; stroke:#231f20; stroke-linecap:round; stroke-linejoin:bevel; stroke-width:.71px;"/>
  <path d="m227.99,128.19v3.01m-4.96-.17v-1.42" style="fill:none; stroke:#231f20; stroke-linecap:round; stroke-linejoin:round; stroke-width:.71px;"/>
  <polyline points="227.99 131.2 228 131.41 228.06 131.62 228.16 131.81 228.27 131.99 228.43 132.15 228.61 132.26 228.79 132.36 229.01 132.42 229.22 132.43" style="fill:none; stroke:#231f20; stroke-linecap:round; stroke-linejoin:bevel; stroke-width:.71px;"/>
  <path d="m232.95,132.45v-4.25h1.59m-5.32,4.25h1.6v-4.25" style="fill:none; stroke:#231f20; stroke-linecap:round; stroke-linejoin:round; stroke-width:.71px;"/>
  <polyline points="235.77 129.43 235.75 129.21 235.7 129 235.6 128.8 235.49 128.63 235.33 128.48 235.16 128.36 234.96 128.27 234.75 128.21 234.54 128.19" style="fill:none; stroke:#231f20; stroke-linecap:round; stroke-linejoin:bevel; stroke-width:.71px;"/>
  <path d="m240.74,126.07v6.38h-1.6m-3.36-3.02v3.02" style="fill:none; stroke:#231f20; stroke-linecap:round; stroke-linejoin:round; stroke-width:.71px;"/>
  <polyline points="237.91 131.2 237.92 131.41 237.98 131.62 238.08 131.81 238.19 131.99 238.35 132.15 238.53 132.26 238.72 132.36 238.93 132.42 239.14 132.43" style="fill:none; stroke:#231f20; stroke-linecap:round; stroke-linejoin:bevel; stroke-width:.71px;"/>
  <line x1="237.91" y1="131.2" x2="237.91" y2="129.43" style="fill:none; stroke:#231f20; stroke-linecap:round; stroke-linejoin:round; stroke-width:.71px;"/>
  <polyline points="239.14 128.19 238.93 128.21 238.72 128.27 238.53 128.36 238.35 128.48 238.19 128.63 238.08 128.8 237.98 129 237.92 129.21 237.91 129.43" style="fill:none; stroke:#231f20; stroke-linecap:round; stroke-linejoin:bevel; stroke-width:.71px;"/>
  <line x1="239.14" y1="128.19" x2="240.74" y2="128.19" style="fill:none; stroke:#231f20; stroke-linecap:round; stroke-linejoin:round; stroke-width:.71px;"/>
  <polygon points="163.4 26.93 163.32 26.96 163.24 27.01 163.19 27.09 163.16 27.17 163.15 27.28 163.15 27.38 163.17 27.47 163.23 27.54 163.3 27.6 163.39 27.62 163.5 27.64 166.44 27.64 166.52 27.61 166.59 27.55 166.65 27.48 166.68 27.4 166.69 27.28 166.69 27.18 166.66 27.1 166.6 27.03 166.53 26.97 166.45 26.94 166.33 26.93 163.4 26.93" style="fill:#231f20;"/>
  <polyline points="166.34 23.03 166.32 23.03 166.21 23.06 163.37 24.12 163.36 24.12 163.26 24.18 163.2 24.25 163.16 24.34 163.15 24.45 163.15 24.48 163.16 24.58 163.22 24.66 163.28 24.73 163.37 24.78 166.21 25.84 166.22 25.85 166.34 25.87 166.43 25.87 166.52 25.84 166.59 25.78 166.65 25.71 166.68 25.62 166.69 25.51 166.69 25.48 166.68 25.38 166.62 25.3 166.56 25.23 166.46 25.18 164.51 24.45 166.46 23.71 166.48 23.71 166.58 23.65 166.63 23.58 166.68 23.5 166.69 23.38 166.69 23.28 166.66 23.2 166.6 23.13 166.53 23.07 166.45 23.04" style="fill:#231f20;"/>
  <path d="m171.07,23.41l.1-.2.07-.21.04-.23v-.24l-.04-.23-.08-.21-.11-.2-.14-.18-.17-.16-.2-.11-.21-.1-.21-.06h-.23m0-.01h-.24s-.23.07-.23.07l-.21.1-.2.11-.18.16-.14.18-.11.21-.09.21" style="fill:none; stroke:#231f20; stroke-linecap:round; stroke-linejoin:bevel; stroke-width:.71px;"/>
  <path d="m176.26,27.64h1.42m-6.59-4.21l-2.62,4.21h2.84" style="fill:none; stroke:#231f20; stroke-linecap:round; stroke-linejoin:round; stroke-width:.71px;"/>
  <polyline points="177.67 27.62 177.91 27.59 178.16 27.54 178.38 27.44 178.58 27.3 178.75 27.13 178.89 26.91 178.99 26.7 179.05 26.46 179.08 26.22" style="fill:none; stroke:#231f20; stroke-linecap:round; stroke-linejoin:bevel; stroke-width:.71px;"/>
  <line x1="179.09" y1="26.22" x2="179.09" y2="25.51" style="fill:none; stroke:#231f20; stroke-linecap:round; stroke-linejoin:round; stroke-width:.71px;"/>
  <polyline points="179.08 25.51 179.05 25.27 178.99 25.03 178.89 24.8 178.75 24.6 178.58 24.43 178.38 24.29 178.16 24.19 177.91 24.14 177.67 24.11" style="fill:none; stroke:#231f20; stroke-linecap:round; stroke-linejoin:bevel; stroke-width:.71px;"/>
  <polyline points="177.67 24.09 176.26 24.09 176.26 21.26 178.74 21.26" style="fill:none; stroke:#231f20; stroke-linecap:round; stroke-linejoin:round; stroke-width:.71px;"/>
  <path d="m186.89,27.28l.13.13.14.11.17.07.18.04h.17l.18-.04.17-.07.14-.11.13-.13m0,0l.21-.44.17-.47.14-.47.1-.48.07-.48v-.5s0-.5,0-.5l-.07-.48-.1-.48-.14-.47-.17-.47-.21-.44m0,0l-.13-.13-.14-.11-.17-.07-.18-.04h-.17l-.18.04-.17.07-.14.11-.13.13m0,0l-.21.44-.17.47-.14.47-.1.48-.07.48v.5s0,.5,0,.5l.07.48.1.48.14.47.17.47.21.44m-4.96,0l.13.13.14.11.17.07.18.04h.17l.18-.04.17-.07.14-.11.13-.13m0,0l.21-.44.17-.47.14-.47.1-.48.07-.48v-.5s0-.5,0-.5l-.07-.48-.1-.48-.14-.47-.17-.47-.21-.44m0,0l-.13-.13-.14-.11-.17-.07-.18-.04h-.17l-.18.04-.17.07-.14.11-.13.13m0,0l-.21.44-.17.47-.14.47-.1.48-.07.48v.5s0,.5,0,.5l.07.48.1.48.14.47.17.47.21.44" style="fill:none; stroke:#231f20; stroke-linecap:round; stroke-linejoin:bevel; stroke-width:.71px;"/>
  <line x1="194.33" y1="23.38" x2="195.56" y2="23.38" style="fill:none; stroke:#231f20; stroke-linecap:round; stroke-linejoin:round; stroke-width:.71px;"/>
  <polyline points="196.79 24.63 196.78 24.42 196.72 24.21 196.62 24.01 196.51 23.84 196.35 23.68 196.18 23.57 195.99 23.47 195.77 23.41 195.56 23.4" style="fill:none; stroke:#231f20; stroke-linecap:round; stroke-linejoin:bevel; stroke-width:.71px;"/>
  <polyline points="196.81 24.63 196.81 27.64 195.04 27.64" style="fill:none; stroke:#231f20; stroke-linecap:round; stroke-linejoin:round; stroke-width:.71px;"/>
  <polyline points="195.04 25.52 194.84 25.54 194.65 25.6 194.48 25.68 194.33 25.79 194.2 25.94 194.1 26.11 194.03 26.29 193.99 26.47 193.99 26.67 194.03 26.86 194.1 27.04 194.2 27.21 194.33 27.35 194.48 27.46 194.65 27.55 194.84 27.61 195.04 27.62" style="fill:none; stroke:#231f20; stroke-linecap:round; stroke-linejoin:bevel; stroke-width:.71px;"/>
  <path d="m198.93,21.26v6.38h1.59m-5.48-2.13h1.77" style="fill:none; stroke:#231f20; stroke-linecap:round; stroke-linejoin:round; stroke-width:.71px;"/>
  <polyline points="200.52 27.64 200.73 27.62 200.95 27.57 201.14 27.47 201.31 27.35 201.47 27.2 201.58 27.01 201.68 26.83 201.74 26.62 201.75 26.4" style="fill:none; stroke:#231f20; stroke-linecap:round; stroke-linejoin:bevel; stroke-width:.71px;"/>
  <line x1="201.77" y1="26.4" x2="201.77" y2="24.63" style="fill:none; stroke:#231f20; stroke-linecap:round; stroke-linejoin:round; stroke-width:.71px;"/>
  <polyline points="201.75 24.63 201.74 24.42 201.68 24.21 201.58 24.01 201.47 23.84 201.31 23.68 201.14 23.57 200.95 23.47 200.73 23.41 200.52 23.4" style="fill:none; stroke:#231f20; stroke-linecap:round; stroke-linejoin:bevel; stroke-width:.71px;"/>
  <line x1="200.52" y1="23.38" x2="198.93" y2="23.38" style="fill:none; stroke:#231f20; stroke-linecap:round; stroke-linejoin:round; stroke-width:.71px;"/>
  <polyline points="206.71 24.8 206.7 24.58 206.64 24.35 206.54 24.14 206.42 23.94 206.26 23.77 206.08 23.63 205.88 23.51 205.65 23.44 205.43 23.4 205.2 23.4 204.97 23.44 204.74 23.51 204.55 23.63 204.36 23.77 204.21 23.94 204.08 24.14 203.98 24.35 203.92 24.58 203.91 24.8" style="fill:none; stroke:#231f20; stroke-linecap:round; stroke-linejoin:bevel; stroke-width:.71px;"/>
  <line x1="206.73" y1="24.8" x2="206.73" y2="26.22" style="fill:none; stroke:#231f20; stroke-linecap:round; stroke-linejoin:round; stroke-width:.71px;"/>
  <polyline points="203.91 26.22 203.92 26.45 203.98 26.67 204.08 26.89 204.21 27.08 204.36 27.25 204.55 27.4 204.74 27.51 204.97 27.58 205.2 27.62 205.42 27.62 205.65 27.58 205.88 27.51 206.08 27.4 206.26 27.25 206.42 27.08 206.54 26.89 206.64 26.67 206.7 26.45 206.71 26.22" style="fill:none; stroke:#231f20; stroke-linecap:round; stroke-linejoin:bevel; stroke-width:.71px;"/>
  <path d="m216.65,27.64h-1.77m-6.02-4.25l1.42,4.25,1.42-4.25m-7.8,2.84v-1.42" style="fill:none; stroke:#231f20; stroke-linecap:round; stroke-linejoin:round; stroke-width:.71px;"/>
  <polyline points="213.83 26.57 213.84 26.77 213.91 26.97 214 27.15 214.14 27.31 214.3 27.45 214.48 27.54 214.68 27.61 214.88 27.62" style="fill:none; stroke:#231f20; stroke-linecap:round; stroke-linejoin:bevel; stroke-width:.71px;"/>
  <line x1="213.81" y1="26.57" x2="213.81" y2="24.8" style="fill:none; stroke:#231f20; stroke-linecap:round; stroke-linejoin:round; stroke-width:.71px;"/>
  <polyline points="216.64 24.8 216.62 24.58 216.56 24.35 216.47 24.14 216.34 23.94 216.18 23.77 216 23.63 215.8 23.51 215.57 23.44 215.35 23.4 215.12 23.4 214.89 23.44 214.67 23.51 214.47 23.63 214.28 23.77 214.13 23.94 214 24.14 213.9 24.35 213.84 24.58 213.83 24.8" style="fill:none; stroke:#231f20; stroke-linecap:round; stroke-linejoin:bevel; stroke-width:.71px;"/>
  <path d="m221.96,29.76h1.23m-6.55-4.96v.71h-2.83" style="fill:none; stroke:#231f20; stroke-linecap:round; stroke-linejoin:round; stroke-width:.71px;"/>
  <polyline points="223.2 29.76 223.41 29.75 223.62 29.69 223.82 29.59 223.99 29.48 224.15 29.32 224.26 29.14 224.36 28.96 224.42 28.74 224.43 28.53" style="fill:none; stroke:#231f20; stroke-linecap:round; stroke-linejoin:bevel; stroke-width:.71px;"/>
  <polyline points="224.44 28.53 224.44 23.38 222.84 23.38" style="fill:none; stroke:#231f20; stroke-linecap:round; stroke-linejoin:round; stroke-width:.71px;"/>
  <polyline points="222.84 23.4 222.63 23.41 222.42 23.47 222.23 23.57 222.05 23.68 221.89 23.84 221.78 24.01 221.68 24.21 221.62 24.42 221.61 24.63" style="fill:none; stroke:#231f20; stroke-linecap:round; stroke-linejoin:bevel; stroke-width:.71px;"/>
  <line x1="221.61" y1="24.63" x2="221.61" y2="26.4" style="fill:none; stroke:#231f20; stroke-linecap:round; stroke-linejoin:round; stroke-width:.71px;"/>
  <polyline points="221.61 26.4 221.62 26.62 221.68 26.83 221.78 27.01 221.89 27.2 222.05 27.35 222.23 27.46 222.42 27.56 222.63 27.62 222.84 27.63" style="fill:none; stroke:#231f20; stroke-linecap:round; stroke-linejoin:bevel; stroke-width:.71px;"/>
  <path d="m226.57,27.64v-4.25h2.13v.71m-5.85,3.54h1.6" style="fill:none; stroke:#231f20; stroke-linecap:round; stroke-linejoin:round; stroke-width:.71px;"/>
  <polyline points="233.64 24.8 233.63 24.58 233.57 24.35 233.47 24.14 233.34 23.94 233.19 23.77 233 23.63 232.81 23.51 232.58 23.44 232.35 23.4 232.13 23.4 231.9 23.44 231.67 23.51 231.47 23.63 231.29 23.77 231.13 23.94 231.01 24.14 230.91 24.35 230.85 24.58 230.84 24.8" style="fill:none; stroke:#231f20; stroke-linecap:round; stroke-linejoin:bevel; stroke-width:.71px;"/>
  <line x1="233.66" y1="24.8" x2="233.66" y2="26.22" style="fill:none; stroke:#231f20; stroke-linecap:round; stroke-linejoin:round; stroke-width:.71px;"/>
  <polyline points="230.84 26.22 230.85 26.45 230.91 26.67 231.01 26.89 231.13 27.08 231.29 27.25 231.47 27.4 231.67 27.51 231.9 27.58 232.13 27.62 232.35 27.62 232.58 27.58 232.81 27.51 233 27.4 233.19 27.25 233.34 27.08 233.47 26.89 233.57 26.67 233.63 26.45 233.64 26.22" style="fill:none; stroke:#231f20; stroke-linecap:round; stroke-linejoin:bevel; stroke-width:.71px;"/>
  <path d="m235.78,23.38v3.02m-4.96-.18v-1.42" style="fill:none; stroke:#231f20; stroke-linecap:round; stroke-linejoin:round; stroke-width:.71px;"/>
  <polyline points="235.78 26.4 235.8 26.62 235.85 26.83 235.95 27.01 236.07 27.2 236.22 27.35 236.41 27.46 236.59 27.56 236.8 27.62 237.02 27.63" style="fill:none; stroke:#231f20; stroke-linecap:round; stroke-linejoin:bevel; stroke-width:.71px;"/>
  <path d="m240.74,27.64v-4.25h1.59m-5.32,4.25h1.6v-4.25" style="fill:none; stroke:#231f20; stroke-linecap:round; stroke-linejoin:round; stroke-width:.71px;"/>
  <polyline points="243.56 24.63 243.55 24.42 243.49 24.21 243.39 24.01 243.28 23.84 243.12 23.68 242.95 23.57 242.76 23.47 242.54 23.41 242.33 23.4" style="fill:none; stroke:#231f20; stroke-linecap:round; stroke-linejoin:bevel; stroke-width:.71px;"/>
  <g style="clip-path:url(#uuid-ba86bee2-d2de-48be-b225-e67c4cba6792);">
    <path d="m248.54,21.26v6.38h-1.6m-3.36-3.01v3.01" style="fill:none; stroke:#231f20; stroke-linecap:round; stroke-linejoin:round; stroke-width:.71px;"/>
  </g>
  <polyline points="245.7 26.4 245.72 26.62 245.77 26.83 245.87 27.01 245.99 27.2 246.14 27.35 246.33 27.46 246.51 27.56 246.72 27.62 246.94 27.63" style="fill:none; stroke:#231f20; stroke-linecap:round; stroke-linejoin:bevel; stroke-width:.71px;"/>
  <line x1="245.7" y1="26.4" x2="245.7" y2="24.63" style="fill:none; stroke:#231f20; stroke-linecap:round; stroke-linejoin:round; stroke-width:.71px;"/>
  <polyline points="246.94 23.4 246.72 23.41 246.51 23.47 246.33 23.57 246.14 23.68 245.99 23.84 245.87 24.01 245.78 24.21 245.72 24.42 245.7 24.63" style="fill:none; stroke:#231f20; stroke-linecap:round; stroke-linejoin:bevel; stroke-width:.71px;"/>
  <g style="clip-path:url(#uuid-eceb56ae-8f3c-4c03-91d1-e8d41659fceb);">
    <line x1="246.94" y1="23.38" x2="248.54" y2="23.38" style="fill:none; stroke:#231f20; stroke-linecap:round; stroke-linejoin:round; stroke-width:.71px;"/>
    <path d="m66.54,232.29h10.45m5.67,0h5.67m-27.45,0h-5.67m21.78-15.53v19.79m-10.45-102.32v102.32" style="fill:none; stroke:#231f20; stroke-linecap:round; stroke-linejoin:round; stroke-width:.5px;"/>
  </g>
  <polyline points="60.77 230.84 66.26 232.3 60.77 232.3" style="fill:#231f20;"/>
  <polyline points="60.77 232.29 66.26 232.29 60.77 233.77" style="fill:#231f20;"/>
  <polyline points="82.74 233.77 77.27 232.3 82.74 232.3" style="fill:#231f20;"/>
  <polyline points="82.74 232.29 77.27 232.29 82.74 230.83" style="fill:#231f20;"/>
  <polygon points="91.42 234.78 91.33 234.8 91.26 234.86 91.2 234.93 91.18 235.02 91.16 235.13 91.16 235.23 91.19 235.31 91.25 235.39 91.32 235.44 91.4 235.47 91.52 235.48 94.45 235.48 94.54 235.46 94.61 235.4 94.66 235.33 94.69 235.24 94.71 235.13 94.71 235.03 94.68 234.95 94.62 234.87 94.55 234.82 94.47 234.79 94.35 234.78 91.42 234.78" style="fill:#231f20;"/>
  <polyline points="94.35 230.88 94.34 230.88 94.22 230.91 91.39 231.97 91.37 231.97 91.28 232.03 91.22 232.1 91.18 232.18 91.16 232.29 91.16 232.32 91.18 232.42 91.23 232.51 91.29 232.58 91.39 232.62 94.22 233.68 94.24 233.7 94.35 233.71 94.45 233.71 94.53 233.68 94.61 233.63 94.66 233.56 94.69 233.47 94.71 233.36 94.71 233.33 94.69 233.23 94.63 233.15 94.58 233.07 94.48 233.03 92.52 232.29 94.48 231.56 94.49 231.56 94.59 231.5 94.65 231.43 94.69 231.34 94.71 231.23 94.71 231.13 94.68 231.05 94.62 230.98 94.55 230.92 94.46 230.89" style="fill:#231f20;"/>
  <polyline points="97.89 235.48 97.89 229.11 96.48 230.52" style="fill:none; stroke:#231f20; stroke-linecap:round; stroke-linejoin:round; stroke-width:.71px;"/>
  <path d="m105.69,235.13l.13.13.14.11.17.07.18.04h.17l.18-.04.17-.07.14-.11.13-.13m0,0l.21-.44.17-.47.14-.47.1-.48.07-.48v-.5s0-.5,0-.5l-.07-.48-.1-.48-.14-.47-.17-.47-.21-.44m0,0l-.13-.13-.14-.11-.17-.07-.18-.04h-.17l-.18.04-.17.07-.14.11-.13.13m0,0l-.21.44-.17.47-.14.47-.1.48-.07.48v.5s0,.5,0,.5l.07.48.1.48.14.47.17.47.21.44m-4.96,0l.13.13.14.11.17.07.18.04h.17l.18-.04.17-.07.14-.11.13-.13m0,0l.21-.44.17-.47.14-.47.1-.48.07-.48v-.5s0-.5,0-.5l-.07-.48-.1-.48-.14-.47-.17-.47-.21-.44m0,0l-.13-.13-.14-.11-.17-.07-.18-.04h-.17l-.18.04-.17.07-.14.11-.13.13m0,0l-.21.44-.17.47-.14.47-.1.48-.07.48v.5s0,.5,0,.5l.07.48.1.48.14.47.17.47.21.44" style="fill:none; stroke:#231f20; stroke-linecap:round; stroke-linejoin:bevel; stroke-width:.71px;"/>
  <polygon points="132.62 196.73 132.53 196.76 132.46 196.82 132.4 196.89 132.38 196.98 132.36 197.09 132.36 197.19 132.39 197.27 132.45 197.34 132.52 197.4 132.6 197.43 132.72 197.44 135.65 197.44 135.73 197.41 135.81 197.36 135.86 197.29 135.89 197.2 135.9 197.09 135.9 196.99 135.88 196.9 135.82 196.83 135.75 196.78 135.66 196.75 135.55 196.73 132.62 196.73" style="fill:#231f20;"/>
  <polyline points="135.55 192.84 135.54 192.84 135.42 192.87 132.59 193.93 132.58 193.93 132.48 193.99 132.42 194.06 132.38 194.14 132.36 194.25 132.36 194.28 132.38 194.38 132.43 194.47 132.49 194.54 132.59 194.58 135.42 195.64 135.44 195.66 135.55 195.67 135.65 195.67 135.74 195.64 135.81 195.59 135.86 195.51 135.89 195.43 135.91 195.32 135.91 195.29 135.89 195.19 135.84 195.1 135.78 195.03 135.68 194.99 133.72 194.25 135.68 193.52 135.69 193.52 135.79 193.46 135.85 193.39 135.89 193.3 135.91 193.19 135.91 193.09 135.88 193.01 135.82 192.94 135.75 192.88 135.66 192.85" style="fill:#231f20;"/>
  <path d="m141.22,197.44h1.42m-3.54,0v-6.38l-1.42,1.42" style="fill:none; stroke:#231f20; stroke-linecap:round; stroke-linejoin:round; stroke-width:.71px;"/>
  <polyline points="142.64 197.43 142.88 197.4 143.12 197.34 143.35 197.25 143.54 197.1 143.71 196.93 143.86 196.72 143.96 196.51 144.01 196.27 144.04 196.03" style="fill:none; stroke:#231f20; stroke-linecap:round; stroke-linejoin:bevel; stroke-width:.71px;"/>
  <line x1="144.06" y1="196.03" x2="144.06" y2="195.32" style="fill:none; stroke:#231f20; stroke-linecap:round; stroke-linejoin:round; stroke-width:.71px;"/>
  <polyline points="144.04 195.32 144.01 195.08 143.95 194.84 143.86 194.61 143.71 194.41 143.54 194.24 143.35 194.1 143.12 194 142.88 193.94 142.64 193.91" style="fill:none; stroke:#231f20; stroke-linecap:round; stroke-linejoin:bevel; stroke-width:.71px;"/>
  <polyline points="142.64 193.9 141.22 193.9 141.22 191.07 143.7 191.07" style="fill:none; stroke:#231f20; stroke-linecap:round; stroke-linejoin:round; stroke-width:.71px;"/>
  <path d="m146.89,197.09l.13.13.14.11.17.07.18.04h.17l.18-.04.17-.07.14-.11.13-.13m.02,0l.21-.44.17-.47.14-.47.1-.48.07-.48v-.5s0-.5,0-.5l-.07-.48-.1-.48-.14-.47-.17-.47-.21-.44m-.02,0l-.13-.13-.14-.11-.17-.07-.18-.04h-.17l-.18.04-.17.07-.14.11-.13.13m0,0l-.21.44-.17.47-.14.47-.1.48-.07.48v.5s0,.5,0,.5l.07.48.1.48.14.47.17.47.21.44" style="fill:none; stroke:#231f20; stroke-linecap:round; stroke-linejoin:bevel; stroke-width:.71px;"/>
  <line x1="154.33" y1="193.19" x2="155.58" y2="193.19" style="fill:none; stroke:#231f20; stroke-linecap:round; stroke-linejoin:round; stroke-width:.71px;"/>
  <polyline points="156.81 194.42 156.8 194.21 156.74 194 156.64 193.8 156.53 193.63 156.37 193.47 156.2 193.36 156 193.26 155.79 193.21 155.58 193.19" style="fill:none; stroke:#231f20; stroke-linecap:round; stroke-linejoin:bevel; stroke-width:.71px;"/>
  <polyline points="156.81 194.42 156.81 197.44 155.04 197.44" style="fill:none; stroke:#231f20; stroke-linecap:round; stroke-linejoin:round; stroke-width:.71px;"/>
  <polyline points="155.04 195.33 154.84 195.35 154.66 195.4 154.49 195.49 154.33 195.6 154.2 195.74 154.11 195.91 154.03 196.1 153.99 196.28 153.99 196.48 154.03 196.66 154.11 196.85 154.2 197.02 154.33 197.16 154.49 197.27 154.66 197.36 154.84 197.41 155.04 197.43" style="fill:none; stroke:#231f20; stroke-linecap:round; stroke-linejoin:bevel; stroke-width:.71px;"/>
  <path d="m158.94,191.07v6.38h1.6m-5.5-2.13h1.77" style="fill:none; stroke:#231f20; stroke-linecap:round; stroke-linejoin:round; stroke-width:.71px;"/>
  <polyline points="160.54 197.43 160.75 197.42 160.96 197.36 161.16 197.26 161.33 197.15 161.49 196.99 161.6 196.81 161.7 196.62 161.76 196.41 161.77 196.2" style="fill:none; stroke:#231f20; stroke-linecap:round; stroke-linejoin:bevel; stroke-width:.71px;"/>
  <line x1="161.77" y1="196.2" x2="161.77" y2="194.42" style="fill:none; stroke:#231f20; stroke-linecap:round; stroke-linejoin:round; stroke-width:.71px;"/>
  <polyline points="161.77 194.42 161.76 194.21 161.7 194 161.6 193.8 161.49 193.63 161.33 193.47 161.16 193.36 160.96 193.26 160.75 193.21 160.54 193.19" style="fill:none; stroke:#231f20; stroke-linecap:round; stroke-linejoin:bevel; stroke-width:.71px;"/>
  <line x1="160.54" y1="193.19" x2="158.94" y2="193.19" style="fill:none; stroke:#231f20; stroke-linecap:round; stroke-linejoin:round; stroke-width:.71px;"/>
  <polyline points="166.72 194.61 166.7 194.38 166.65 194.15 166.55 193.94 166.42 193.74 166.26 193.57 166.08 193.43 165.88 193.32 165.66 193.25 165.43 193.2 165.2 193.2 164.97 193.25 164.75 193.32 164.55 193.43 164.37 193.57 164.21 193.74 164.08 193.94 163.98 194.15 163.93 194.38 163.91 194.61" style="fill:none; stroke:#231f20; stroke-linecap:round; stroke-linejoin:bevel; stroke-width:.71px;"/>
  <line x1="166.73" y1="194.61" x2="166.73" y2="196.03" style="fill:none; stroke:#231f20; stroke-linecap:round; stroke-linejoin:round; stroke-width:.71px;"/>
  <polyline points="163.91 196.03 163.93 196.25 163.98 196.48 164.08 196.69 164.21 196.89 164.37 197.06 164.55 197.2 164.75 197.32 164.97 197.39 165.2 197.43 165.43 197.43 165.66 197.39 165.88 197.32 166.08 197.2 166.26 197.06 166.42 196.89 166.55 196.69 166.65 196.48 166.7 196.25 166.72 196.03" style="fill:none; stroke:#231f20; stroke-linecap:round; stroke-linejoin:bevel; stroke-width:.71px;"/>
  <path d="m176.65,197.44h-1.77m-6.02-4.25l1.42,4.25,1.42-4.25m-7.8,2.84v-1.42" style="fill:none; stroke:#231f20; stroke-linecap:round; stroke-linejoin:round; stroke-width:.71px;"/>
  <polyline points="173.83 196.38 173.85 196.58 173.92 196.78 174 196.96 174.14 197.12 174.3 197.26 174.48 197.34 174.68 197.41 174.88 197.43" style="fill:none; stroke:#231f20; stroke-linecap:round; stroke-linejoin:bevel; stroke-width:.71px;"/>
  <line x1="173.82" y1="196.38" x2="173.82" y2="194.61" style="fill:none; stroke:#231f20; stroke-linecap:round; stroke-linejoin:round; stroke-width:.71px;"/>
  <polyline points="176.64 194.61 176.63 194.38 176.57 194.15 176.47 193.94 176.34 193.74 176.19 193.57 176 193.43 175.8 193.32 175.58 193.25 175.35 193.2 175.12 193.2 174.9 193.25 174.67 193.32 174.47 193.43 174.29 193.57 174.13 193.74 174 193.94 173.9 194.15 173.85 194.38 173.83 194.61" style="fill:none; stroke:#231f20; stroke-linecap:round; stroke-linejoin:bevel; stroke-width:.71px;"/>
  <path d="m181.97,199.57h1.25m-6.56-4.96v.71h-2.83" style="fill:none; stroke:#231f20; stroke-linecap:round; stroke-linejoin:round; stroke-width:.71px;"/>
  <polyline points="183.22 199.56 183.43 199.54 183.64 199.48 183.84 199.39 184.01 199.27 184.17 199.12 184.28 198.93 184.38 198.75 184.43 198.54 184.45 198.32" style="fill:none; stroke:#231f20; stroke-linecap:round; stroke-linejoin:bevel; stroke-width:.71px;"/>
  <polyline points="184.45 198.32 184.45 193.19 182.86 193.19" style="fill:none; stroke:#231f20; stroke-linecap:round; stroke-linejoin:round; stroke-width:.71px;"/>
  <polyline points="182.86 193.19 182.65 193.21 182.44 193.26 182.25 193.36 182.07 193.47 181.91 193.63 181.8 193.8 181.7 194 181.64 194.21 181.63 194.42" style="fill:none; stroke:#231f20; stroke-linecap:round; stroke-linejoin:bevel; stroke-width:.71px;"/>
  <line x1="181.61" y1="194.42" x2="181.61" y2="196.2" style="fill:none; stroke:#231f20; stroke-linecap:round; stroke-linejoin:round; stroke-width:.71px;"/>
  <polyline points="181.63 196.2 181.64 196.41 181.7 196.62 181.8 196.8 181.91 196.99 182.07 197.14 182.25 197.26 182.43 197.36 182.65 197.41 182.86 197.43" style="fill:none; stroke:#231f20; stroke-linecap:round; stroke-linejoin:bevel; stroke-width:.71px;"/>
  <path d="m186.57,197.44v-4.25h2.13v.71m-5.84,3.54h1.59" style="fill:none; stroke:#231f20; stroke-linecap:round; stroke-linejoin:round; stroke-width:.71px;"/>
  <polyline points="193.65 194.61 193.63 194.38 193.58 194.15 193.48 193.94 193.35 193.74 193.19 193.57 193.01 193.43 192.81 193.32 192.58 193.25 192.36 193.2 192.13 193.2 191.9 193.25 191.68 193.32 191.48 193.43 191.29 193.57 191.14 193.74 191.01 193.94 190.91 194.15 190.85 194.38 190.84 194.61" style="fill:none; stroke:#231f20; stroke-linecap:round; stroke-linejoin:bevel; stroke-width:.71px;"/>
  <line x1="193.66" y1="194.61" x2="193.66" y2="196.03" style="fill:none; stroke:#231f20; stroke-linecap:round; stroke-linejoin:round; stroke-width:.71px;"/>
  <polyline points="190.84 196.03 190.85 196.25 190.91 196.48 191.01 196.69 191.14 196.89 191.29 197.06 191.48 197.2 191.68 197.32 191.9 197.39 192.13 197.43 192.36 197.43 192.58 197.39 192.81 197.32 193.01 197.2 193.19 197.06 193.35 196.89 193.48 196.69 193.58 196.48 193.63 196.25 193.65 196.03" style="fill:none; stroke:#231f20; stroke-linecap:round; stroke-linejoin:bevel; stroke-width:.71px;"/>
  <path d="m195.79,193.19v3.01m-4.96-.17v-1.42" style="fill:none; stroke:#231f20; stroke-linecap:round; stroke-linejoin:round; stroke-width:.71px;"/>
  <polyline points="195.8 196.2 195.81 196.41 195.87 196.62 195.97 196.8 196.08 196.99 196.24 197.14 196.42 197.26 196.61 197.36 196.82 197.41 197.03 197.43" style="fill:none; stroke:#231f20; stroke-linecap:round; stroke-linejoin:bevel; stroke-width:.71px;"/>
  <path d="m200.75,197.44v-4.25h1.6m-5.32,4.25h1.59v-4.25" style="fill:none; stroke:#231f20; stroke-linecap:round; stroke-linejoin:round; stroke-width:.71px;"/>
  <polyline points="203.58 194.42 203.57 194.21 203.51 194 203.41 193.8 203.3 193.63 203.14 193.47 202.97 193.36 202.77 193.26 202.56 193.21 202.35 193.19" style="fill:none; stroke:#231f20; stroke-linecap:round; stroke-linejoin:bevel; stroke-width:.71px;"/>
  <path d="m208.54,191.07v6.38h-1.59m-3.37-3.02v3.02" style="fill:none; stroke:#231f20; stroke-linecap:round; stroke-linejoin:round; stroke-width:.71px;"/>
  <polyline points="205.72 196.2 205.74 196.41 205.79 196.62 205.89 196.8 206.01 196.99 206.16 197.14 206.35 197.26 206.53 197.36 206.74 197.41 206.96 197.43" style="fill:none; stroke:#231f20; stroke-linecap:round; stroke-linejoin:bevel; stroke-width:.71px;"/>
  <line x1="205.71" y1="196.2" x2="205.71" y2="194.42" style="fill:none; stroke:#231f20; stroke-linecap:round; stroke-linejoin:round; stroke-width:.71px;"/>
  <polyline points="206.96 193.19 206.74 193.21 206.53 193.26 206.35 193.36 206.16 193.47 206.01 193.63 205.89 193.8 205.79 194 205.74 194.21 205.72 194.42" style="fill:none; stroke:#231f20; stroke-linecap:round; stroke-linejoin:bevel; stroke-width:.71px;"/>
  <line x1="206.96" y1="193.19" x2="208.54" y2="193.19" style="fill:none; stroke:#231f20; stroke-linecap:round; stroke-linejoin:round; stroke-width:.71px;"/>
  <path d="m173.25,177.76v3.97m-1.49-8.93l-1.98,6.95h4.96" style="fill:none; stroke:#231f20; stroke-linecap:round; stroke-linejoin:round; stroke-width:.99px;"/>
  <polygon points="72.37 202.93 72.67 202.9 72.37 201.44 72.37 202.93" style="fill:#231f20;"/>
  <polygon points="72.67 202.9 72.94 202.81 72.37 201.44 72.67 202.9" style="fill:#231f20;"/>
  <polygon points="72.94 202.82 73.2 202.69 72.37 201.44 72.94 202.82" style="fill:#231f20;"/>
  <polyline points="73.2 202.69 73.43 202.5 72.37 201.44" style="fill:#231f20;"/>
  <polyline points="73.43 202.5 73.62 202.28 72.37 201.44" style="fill:#231f20;"/>
  <polygon points="73.62 202.28 73.74 202.01 72.37 201.44 73.62 202.28" style="fill:#231f20;"/>
  <polygon points="73.74 202.01 73.83 201.74 72.37 201.44 73.74 202.01" style="fill:#231f20;"/>
  <polygon points="72.37 201.44 73.83 201.74 73.86 201.44 72.37 201.44" style="fill:#231f20;"/>
  <polygon points="72.37 201.44 73.86 201.44 73.83 201.16 72.37 201.44" style="fill:#231f20;"/>
  <polygon points="72.37 201.44 73.83 201.16 73.74 200.87 72.37 201.44" style="fill:#231f20;"/>
  <polygon points="72.37 201.44 73.74 200.87 73.61 200.62 72.37 201.44" style="fill:#231f20;"/>
  <polyline points="73.62 200.62 73.43 200.39 72.37 201.44" style="fill:#231f20;"/>
  <polyline points="73.43 200.39 73.2 200.21 72.37 201.44" style="fill:#231f20;"/>
  <polygon points="72.37 201.44 73.2 200.21 72.94 200.07 72.37 201.44" style="fill:#231f20;"/>
  <polygon points="72.37 201.44 72.94 200.07 72.67 199.98 72.37 201.44" style="fill:#231f20;"/>
  <polygon points="72.37 201.44 72.67 199.98 72.37 199.95 72.37 201.44" style="fill:#231f20;"/>
  <polygon points="72.08 199.98 72.37 201.44 72.37 199.95 72.08 199.98" style="fill:#231f20;"/>
  <polygon points="71.8 200.06 72.37 201.44 72.08 199.98 71.8 200.06" style="fill:#231f20;"/>
  <polygon points="71.55 200.21 72.37 201.44 71.8 200.07 71.55 200.21" style="fill:#231f20;"/>
  <polyline points="71.55 200.21 71.32 200.39 72.37 201.44" style="fill:#231f20;"/>
  <polyline points="71.32 200.39 71.14 200.62 72.37 201.44" style="fill:#231f20;"/>
  <polygon points="70.99 200.87 72.37 201.44 71.14 200.62 70.99 200.87" style="fill:#231f20;"/>
  <polygon points="70.91 201.16 72.37 201.44 70.99 200.87 70.91 201.16" style="fill:#231f20;"/>
  <polygon points="70.88 201.44 72.37 201.44 70.91 201.16 70.88 201.44" style="fill:#231f20;"/>
  <polygon points="70.88 201.44 70.91 201.74 72.37 201.44 70.88 201.44" style="fill:#231f20;"/>
  <polygon points="70.91 201.74 70.99 202.01 72.37 201.44 70.91 201.74" style="fill:#231f20;"/>
  <polygon points="70.99 202.01 71.14 202.28 72.37 201.44 70.99 202.01" style="fill:#231f20;"/>
  <polyline points="71.14 202.28 71.32 202.5 72.37 201.44" style="fill:#231f20;"/>
  <polyline points="71.32 202.5 71.55 202.69 72.37 201.44" style="fill:#231f20;"/>
  <polygon points="71.55 202.69 71.8 202.82 72.37 201.44 71.55 202.69" style="fill:#231f20;"/>
  <polygon points="71.8 202.82 72.09 202.9 72.37 201.44 71.8 202.82" style="fill:#231f20;"/>
  <polygon points="72.08 202.9 72.37 202.93 72.37 201.44 72.08 202.9" style="fill:#231f20;"/>
  <polyline points="72.37 201.44 72.37 177.26 166.94 177.26" style="fill:none; stroke:#231f20; stroke-linecap:round; stroke-linejoin:round; stroke-width:.5px;"/>
</svg>