<svg
   xmlns:inkscape="http://www.inkscape.org/namespaces/inkscape"
   xmlns:sodipodi="http://sodipodi.sourceforge.net/DTD/sodipodi-0.dtd"
   xmlns="http://www.w3.org/2000/svg"
   xmlns:svg="http://www.w3.org/2000/svg"
   version="1.1"
   id="svg1"
   width="721.33331"
   height="961.33331"
   viewBox="0 0 721.33331 961.33331"
   sodipodi:docname="image.ps">
  <defs
     id="defs1">
    <clipPath
       clipPathUnits="userSpaceOnUse"
       id="clipPath2">
      <path
         d="M 260,740 H 5140 V 6050 H 260 Z"
         transform="translate(0,-2.4999999e-5)"
         id="path2" />
    </clipPath>
    <clipPath
       clipPathUnits="userSpaceOnUse"
       id="clipPath4">
      <path
         d="M 260,740 H 5140 V 6050 H 260 Z"
         transform="translate(0,-2.4999999e-5)"
         id="path4" />
    </clipPath>
    <clipPath
       clipPathUnits="userSpaceOnUse"
       id="clipPath6">
      <path
         d="M 260,740 H 5140 V 6050 H 260 Z"
         transform="translate(0,-2.4999999e-5)"
         id="path6" />
    </clipPath>
    <clipPath
       clipPathUnits="userSpaceOnUse"
       id="clipPath8">
      <path
         d="M 260,740 H 5140 V 6050 H 260 Z"
         transform="translate(0,-2.4999999e-5)"
         id="path8" />
    </clipPath>
    <clipPath
       clipPathUnits="userSpaceOnUse"
       id="clipPath10">
      <path
         d="M 260,740 H 5140 V 6050 H 260 Z"
         transform="translate(0,-2.4999999e-5)"
         id="path10" />
    </clipPath>
    <clipPath
       clipPathUnits="userSpaceOnUse"
       id="clipPath12">
      <path
         d="M 260,740 H 5140 V 6050 H 260 Z"
         transform="translate(0,-2.4999999e-5)"
         id="path12" />
    </clipPath>
    <clipPath
       clipPathUnits="userSpaceOnUse"
       id="clipPath14">
      <path
         d="M 260,740 H 5140 V 6050 H 260 Z"
         transform="translate(0,-2.4999999e-5)"
         id="path14" />
    </clipPath>
    <clipPath
       clipPathUnits="userSpaceOnUse"
       id="clipPath16">
      <path
         d="M 260,740 H 5140 V 6050 H 260 Z"
         transform="translate(0,-2.4999999e-5)"
         id="path16" />
    </clipPath>
    <clipPath
       clipPathUnits="userSpaceOnUse"
       id="clipPath18">
      <path
         d="M 260,740 H 5140 V 6050 H 260 Z"
         transform="translate(0,-2.4999999e-5)"
         id="path18" />
    </clipPath>
    <clipPath
       clipPathUnits="userSpaceOnUse"
       id="clipPath20">
      <path
         d="M 260,740 H 5140 V 6050 H 260 Z"
         transform="translate(0,-2.4999999e-5)"
         id="path20" />
    </clipPath>
    <clipPath
       clipPathUnits="userSpaceOnUse"
       id="clipPath22">
      <path
         d="M 260,740 H 5140 V 6050 H 260 Z"
         transform="translate(0,-2.4999999e-5)"
         id="path22" />
    </clipPath>
    <clipPath
       clipPathUnits="userSpaceOnUse"
       id="clipPath24">
      <path
         d="M 260,740 H 5140 V 6050 H 260 Z"
         transform="translate(0,-2.4999999e-5)"
         id="path24" />
    </clipPath>
    <clipPath
       clipPathUnits="userSpaceOnUse"
       id="clipPath26">
      <path
         d="M 260,740 H 5140 V 6050 H 260 Z"
         transform="translate(0,-2.4999999e-5)"
         id="path26" />
    </clipPath>
    <clipPath
       clipPathUnits="userSpaceOnUse"
       id="clipPath28">
      <path
         d="M 260,740 H 5140 V 6050 H 260 Z"
         transform="translate(0,-2.4999999e-5)"
         id="path28" />
    </clipPath>
    <clipPath
       clipPathUnits="userSpaceOnUse"
       id="clipPath30">
      <path
         d="M 260,740 H 5140 V 6050 H 260 Z"
         transform="translate(0,-2.4999999e-5)"
         id="path30" />
    </clipPath>
    <clipPath
       clipPathUnits="userSpaceOnUse"
       id="clipPath32">
      <path
         d="M 260,740 H 5140 V 6050 H 260 Z"
         transform="translate(0,-2.4999999e-5)"
         id="path32" />
    </clipPath>
    <clipPath
       clipPathUnits="userSpaceOnUse"
       id="clipPath34">
      <path
         d="M 260,740 H 5140 V 6050 H 260 Z"
         transform="translate(0,-2.4999999e-5)"
         id="path34" />
    </clipPath>
    <clipPath
       clipPathUnits="userSpaceOnUse"
       id="clipPath36">
      <path
         d="M 260,740 H 5140 V 6050 H 260 Z"
         transform="translate(0,-2.4999999e-5)"
         id="path36" />
    </clipPath>
    <clipPath
       clipPathUnits="userSpaceOnUse"
       id="clipPath38">
      <path
         d="M 260,740 H 5140 V 6050 H 260 Z"
         transform="translate(0,-2.4999999e-5)"
         id="path38" />
    </clipPath>
    <clipPath
       clipPathUnits="userSpaceOnUse"
       id="clipPath40">
      <path
         d="M 260,740 H 5140 V 6050 H 260 Z"
         transform="translate(0,-2.4999999e-5)"
         id="path40" />
    </clipPath>
    <clipPath
       clipPathUnits="userSpaceOnUse"
       id="clipPath42">
      <path
         d="M 260,740 H 5140 V 6050 H 260 Z"
         transform="translate(0,-2.4999999e-5)"
         id="path42" />
    </clipPath>
    <clipPath
       clipPathUnits="userSpaceOnUse"
       id="clipPath44">
      <path
         d="M 260,740 H 5140 V 6050 H 260 Z"
         transform="translate(0,-2.4999999e-5)"
         id="path44" />
    </clipPath>
    <clipPath
       clipPathUnits="userSpaceOnUse"
       id="clipPath46">
      <path
         d="M 260,740 H 5140 V 6050 H 260 Z"
         transform="translate(0,-2.4999999e-5)"
         id="path46" />
    </clipPath>
    <clipPath
       clipPathUnits="userSpaceOnUse"
       id="clipPath48">
      <path
         d="M 260,740 H 5140 V 6050 H 260 Z"
         transform="translate(0,-2.4999999e-5)"
         id="path48" />
    </clipPath>
    <clipPath
       clipPathUnits="userSpaceOnUse"
       id="clipPath50">
      <path
         d="M 260,740 H 5140 V 6050 H 260 Z"
         transform="translate(0,-2.4999999e-5)"
         id="path50" />
    </clipPath>
    <clipPath
       clipPathUnits="userSpaceOnUse"
       id="clipPath52">
      <path
         d="M 260,740 H 5140 V 6050 H 260 Z"
         transform="translate(0,-2.4999999e-5)"
         id="path52" />
    </clipPath>
    <clipPath
       clipPathUnits="userSpaceOnUse"
       id="clipPath54">
      <path
         d="M 260,740 H 5140 V 6050 H 260 Z"
         transform="translate(0,-2.4999999e-5)"
         id="path54" />
    </clipPath>
    <clipPath
       clipPathUnits="userSpaceOnUse"
       id="clipPath56">
      <path
         d="M 260,740 H 5140 V 6050 H 260 Z"
         transform="translate(0,-2.4999999e-5)"
         id="path56" />
    </clipPath>
    <clipPath
       clipPathUnits="userSpaceOnUse"
       id="clipPath58">
      <path
         d="M 260,740 H 5140 V 6050 H 260 Z"
         transform="translate(0,-2.4999999e-5)"
         id="path58" />
    </clipPath>
    <clipPath
       clipPathUnits="userSpaceOnUse"
       id="clipPath60">
      <path
         d="M 260,740 H 5140 V 6050 H 260 Z"
         transform="translate(0,-2.4999999e-5)"
         id="path60" />
    </clipPath>
    <clipPath
       clipPathUnits="userSpaceOnUse"
       id="clipPath62">
      <path
         d="M 260,740 H 5140 V 6050 H 260 Z"
         transform="translate(0,-2.4999999e-5)"
         id="path62" />
    </clipPath>
  </defs>
  <sodipodi:namedview
     id="namedview1"
     pagecolor="#ffffff"
     bordercolor="#000000"
     borderopacity="0.25"
     inkscape:showpageshadow="2"
     inkscape:pageopacity="0.0"
     inkscape:pagecheckerboard="0"
     inkscape:deskcolor="#d1d1d1">
    <inkscape:page
       x="0"
       y="0"
       inkscape:label="1"
       id="page1"
       width="721.33331"
       height="961.33331"
       margin="0"
       bleed="0" />
  </sodipodi:namedview>
  <g
     id="g1"
     inkscape:groupmode="layer"
     inkscape:label="1">
    <path
       id="path1"
       d="M 270,1180 H 5130"
       style="fill:none;stroke:#000000;stroke-width:10;stroke-linecap:butt;stroke-linejoin:miter;stroke-miterlimit:10;stroke-dasharray:none;stroke-opacity:1"
       transform="matrix(0.13333333,0,0,-0.13333333,0,961.33333)"
       clip-path="url(#clipPath2)" />
    <path
       id="path3"
       d="M 5130,1180 V 6040"
       style="fill:none;stroke:#000000;stroke-width:10;stroke-linecap:butt;stroke-linejoin:miter;stroke-miterlimit:10;stroke-dasharray:none;stroke-opacity:1"
       transform="matrix(0.13333333,0,0,-0.13333333,0,961.33333)"
       clip-path="url(#clipPath4)" />
    <path
       id="path5"
       d="M 5130,6040 H 270"
       style="fill:none;stroke:#000000;stroke-width:10;stroke-linecap:butt;stroke-linejoin:miter;stroke-miterlimit:10;stroke-dasharray:none;stroke-opacity:1"
       transform="matrix(0.13333333,0,0,-0.13333333,0,961.33333)"
       clip-path="url(#clipPath6)" />
    <path
       id="path7"
       d="M 270,6040 V 1180"
       style="fill:none;stroke:#000000;stroke-width:10;stroke-linecap:butt;stroke-linejoin:miter;stroke-miterlimit:10;stroke-dasharray:none;stroke-opacity:1"
       transform="matrix(0.13333333,0,0,-0.13333333,0,961.33333)"
       clip-path="url(#clipPath8)" />
    <path
       id="path9"
       d="m 4320,2260 c 0,596.45 -483.55,1080 -1080,1080 -596.45,0 -1080,-483.55 -1080,-1080 0,-596.45 483.55,-1080 1080,-1080 596.45,0 1080,483.55 1080,1080 z"
       style="fill:none;stroke:#000000;stroke-width:10;stroke-linecap:butt;stroke-linejoin:miter;stroke-miterlimit:10;stroke-dasharray:none;stroke-opacity:1"
       transform="matrix(0.13333333,0,0,-0.13333333,0,961.33333)"
       clip-path="url(#clipPath10)" />
    <path
       id="path11"
       d="m 3250,3220 -30,10 -50,-20 -50,-30 -60,-60 -60,-70 -70,-90 -70,-100 -70,-120 -80,-130 -70,-130 -80,-150 -70,-150 -70,-160 -70,-150 -50,-160 -60,-150 -40,-140 -40,-130 -30,-120 -20,-110 -10,-100 v -80 l 10,-60 10,-40 30,-20 30,-10 50,20 50,30 60,60 60,70 70,90 70,100 70,120 80,130 70,130 80,150 70,150 70,160 70,150 50,160 60,150 40,140 40,130 30,120 20,110 10,100 v 80 l -10,60 -10,40 -30,20"
       style="fill:none;stroke:#000000;stroke-width:10;stroke-linecap:butt;stroke-linejoin:miter;stroke-miterlimit:10;stroke-dasharray:none;stroke-opacity:1"
       transform="matrix(0.13333333,0,0,-0.13333333,0,961.33333)"
       clip-path="url(#clipPath12)" />
    <path
       id="path13"
       d="M 1350,2260 V 4960"
       style="fill:none;stroke:#000000;stroke-width:10;stroke-linecap:butt;stroke-linejoin:miter;stroke-miterlimit:10;stroke-dasharray:none;stroke-opacity:1"
       transform="matrix(0.13333333,0,0,-0.13333333,0,961.33333)"
       clip-path="url(#clipPath14)" />
    <path
       id="path15"
       d="M 1620,2260 V 4960"
       style="fill:none;stroke:#000000;stroke-width:10;stroke-linecap:butt;stroke-linejoin:miter;stroke-miterlimit:10;stroke-dasharray:none;stroke-opacity:1"
       transform="matrix(0.13333333,0,0,-0.13333333,0,961.33333)"
       clip-path="url(#clipPath16)" />
    <path
       id="path17"
       d="M 1890,2260 V 4960"
       style="fill:none;stroke:#000000;stroke-width:10;stroke-linecap:butt;stroke-linejoin:miter;stroke-miterlimit:10;stroke-dasharray:none;stroke-opacity:1"
       transform="matrix(0.13333333,0,0,-0.13333333,0,961.33333)"
       clip-path="url(#clipPath18)" />
    <path
       id="path19"
       d="M 2160,2260 V 4960"
       style="fill:none;stroke:#000000;stroke-width:10;stroke-linecap:butt;stroke-linejoin:miter;stroke-miterlimit:10;stroke-dasharray:none;stroke-opacity:1"
       transform="matrix(0.13333333,0,0,-0.13333333,0,961.33333)"
       clip-path="url(#clipPath20)" />
    <path
       id="path21"
       d="M 2430,2260 V 4960"
       style="fill:none;stroke:#000000;stroke-width:10;stroke-linecap:butt;stroke-linejoin:miter;stroke-miterlimit:10;stroke-dasharray:none;stroke-opacity:1"
       transform="matrix(0.13333333,0,0,-0.13333333,0,961.33333)"
       clip-path="url(#clipPath22)" />
    <path
       id="path23"
       d="M 2700,2260 V 4960"
       style="fill:none;stroke:#000000;stroke-width:10;stroke-linecap:butt;stroke-linejoin:miter;stroke-miterlimit:10;stroke-dasharray:none;stroke-opacity:1"
       transform="matrix(0.13333333,0,0,-0.13333333,0,961.33333)"
       clip-path="url(#clipPath24)" />
    <path
       id="path25"
       d="M 2970,2260 V 4960"
       style="fill:none;stroke:#000000;stroke-width:10;stroke-linecap:butt;stroke-linejoin:miter;stroke-miterlimit:10;stroke-dasharray:none;stroke-opacity:1"
       transform="matrix(0.13333333,0,0,-0.13333333,0,961.33333)"
       clip-path="url(#clipPath26)" />
    <path
       id="path27"
       d="M 3240,2260 V 4960"
       style="fill:none;stroke:#000000;stroke-width:10;stroke-linecap:butt;stroke-linejoin:miter;stroke-miterlimit:10;stroke-dasharray:none;stroke-opacity:1"
       transform="matrix(0.13333333,0,0,-0.13333333,0,961.33333)"
       clip-path="url(#clipPath28)" />
    <path
       id="path29"
       d="M 3510,2260 V 4960"
       style="fill:none;stroke:#000000;stroke-width:10;stroke-linecap:butt;stroke-linejoin:miter;stroke-miterlimit:10;stroke-dasharray:none;stroke-opacity:1"
       transform="matrix(0.13333333,0,0,-0.13333333,0,961.33333)"
       clip-path="url(#clipPath30)" />
    <path
       id="path31"
       d="M 3780,2260 V 4960"
       style="fill:none;stroke:#000000;stroke-width:10;stroke-linecap:butt;stroke-linejoin:miter;stroke-miterlimit:10;stroke-dasharray:none;stroke-opacity:1"
       transform="matrix(0.13333333,0,0,-0.13333333,0,961.33333)"
       clip-path="url(#clipPath32)" />
    <path
       id="path33"
       d="M 4050,2260 V 4960"
       style="fill:none;stroke:#000000;stroke-width:10;stroke-linecap:butt;stroke-linejoin:miter;stroke-miterlimit:10;stroke-dasharray:none;stroke-opacity:1"
       transform="matrix(0.13333333,0,0,-0.13333333,0,961.33333)"
       clip-path="url(#clipPath34)" />
    <path
       id="path35"
       d="M 1350,2260 H 4050"
       style="fill:none;stroke:#000000;stroke-width:10;stroke-linecap:butt;stroke-linejoin:miter;stroke-miterlimit:10;stroke-dasharray:none;stroke-opacity:1"
       transform="matrix(0.13333333,0,0,-0.13333333,0,961.33333)"
       clip-path="url(#clipPath36)" />
    <path
       id="path37"
       d="M 1350,2530 H 4050"
       style="fill:none;stroke:#000000;stroke-width:10;stroke-linecap:butt;stroke-linejoin:miter;stroke-miterlimit:10;stroke-dasharray:none;stroke-opacity:1"
       transform="matrix(0.13333333,0,0,-0.13333333,0,961.33333)"
       clip-path="url(#clipPath38)" />
    <path
       id="path39"
       d="M 1350,2800 H 4050"
       style="fill:none;stroke:#000000;stroke-width:10;stroke-linecap:butt;stroke-linejoin:miter;stroke-miterlimit:10;stroke-dasharray:none;stroke-opacity:1"
       transform="matrix(0.13333333,0,0,-0.13333333,0,961.33333)"
       clip-path="url(#clipPath40)" />
    <path
       id="path41"
       d="M 1350,3070 H 4050"
       style="fill:none;stroke:#000000;stroke-width:10;stroke-linecap:butt;stroke-linejoin:miter;stroke-miterlimit:10;stroke-dasharray:none;stroke-opacity:1"
       transform="matrix(0.13333333,0,0,-0.13333333,0,961.33333)"
       clip-path="url(#clipPath42)" />
    <path
       id="path43"
       d="M 1350,3340 H 4050"
       style="fill:none;stroke:#000000;stroke-width:10;stroke-linecap:butt;stroke-linejoin:miter;stroke-miterlimit:10;stroke-dasharray:none;stroke-opacity:1"
       transform="matrix(0.13333333,0,0,-0.13333333,0,961.33333)"
       clip-path="url(#clipPath44)" />
    <path
       id="path45"
       d="M 1350,3610 H 4050"
       style="fill:none;stroke:#000000;stroke-width:10;stroke-linecap:butt;stroke-linejoin:miter;stroke-miterlimit:10;stroke-dasharray:none;stroke-opacity:1"
       transform="matrix(0.13333333,0,0,-0.13333333,0,961.33333)"
       clip-path="url(#clipPath46)" />
    <path
       id="path47"
       d="M 1350,3880 H 4050"
       style="fill:none;stroke:#000000;stroke-width:10;stroke-linecap:butt;stroke-linejoin:miter;stroke-miterlimit:10;stroke-dasharray:none;stroke-opacity:1"
       transform="matrix(0.13333333,0,0,-0.13333333,0,961.33333)"
       clip-path="url(#clipPath48)" />
    <path
       id="path49"
       d="M 1350,4150 H 4050"
       style="fill:none;stroke:#000000;stroke-width:10;stroke-linecap:butt;stroke-linejoin:miter;stroke-miterlimit:10;stroke-dasharray:none;stroke-opacity:1"
       transform="matrix(0.13333333,0,0,-0.13333333,0,961.33333)"
       clip-path="url(#clipPath50)" />
    <path
       id="path51"
       d="M 1350,4420 H 4050"
       style="fill:none;stroke:#000000;stroke-width:10;stroke-linecap:butt;stroke-linejoin:miter;stroke-miterlimit:10;stroke-dasharray:none;stroke-opacity:1"
       transform="matrix(0.13333333,0,0,-0.13333333,0,961.33333)"
       clip-path="url(#clipPath52)" />
    <path
       id="path53"
       d="M 1350,4690 H 4050"
       style="fill:none;stroke:#000000;stroke-width:10;stroke-linecap:butt;stroke-linejoin:miter;stroke-miterlimit:10;stroke-dasharray:none;stroke-opacity:1"
       transform="matrix(0.13333333,0,0,-0.13333333,0,961.33333)"
       clip-path="url(#clipPath54)" />
    <path
       id="path55"
       d="M 1350,4960 H 4050"
       style="fill:none;stroke:#000000;stroke-width:10;stroke-linecap:butt;stroke-linejoin:miter;stroke-miterlimit:10;stroke-dasharray:none;stroke-opacity:1"
       transform="matrix(0.13333333,0,0,-0.13333333,0,961.33333)"
       clip-path="url(#clipPath56)" />
    <path
       id="path57"
       d="m 2750,3610 c 0,27.62 -22.38,50 -50,50 -27.62,0 -50,-22.38 -50,-50 0,-27.62 22.38,-50 50,-50 27.62,0 50,22.38 50,50 z"
       style="fill:none;stroke:#000000;stroke-width:10;stroke-linecap:butt;stroke-linejoin:miter;stroke-miterlimit:10;stroke-dasharray:none;stroke-opacity:1"
       transform="matrix(0.13333333,0,0,-0.13333333,0,961.33333)"
       clip-path="url(#clipPath58)" />
    <path
       id="path59"
       d="m 4050,4420 c 0,298.24 -241.76,540 -540,540"
       style="fill:none;stroke:#00ff00;stroke-width:10;stroke-linecap:butt;stroke-linejoin:miter;stroke-miterlimit:10;stroke-dasharray:none;stroke-opacity:1"
       transform="matrix(0.13333333,0,0,-0.13333333,0,961.33333)"
       clip-path="url(#clipPath60)" />
    <path
       id="path61"
       d="m 1364.41,2262.46 v -2.69 c 5.28,0.11 8.44,0.23 13.13,0.23 4.69,0 7.97,-0.12 13.24,-0.23 v 2.69 l -4.33,0.24 c -4.11,0.23 -4.46,0.93 -4.57,8.08 v 38.09 c 0,4.57 0.11,6.44 0.35,9.02 h 13.94 c 2.58,-0.12 3.4,-0.7 3.63,-3.05 l 0.36,-7.03 h 2.81 c 0,5.86 0.12,9.38 0.58,14.42 l -11.95,-0.12 c -5.15,-0.12 -6.09,-0.12 -7.5,-0.12 h -14.18 c -1.05,0 -5.86,0.12 -12.19,0.24 h -6.09 c 0.47,-5.04 0.59,-8.56 0.59,-14.42 h 2.81 l 0.35,7.03 c 0.23,2.35 0.94,2.93 3.63,3.05 h 13.95 c 0.23,-2.81 0.35,-4.92 0.35,-9.02 v -38.09 c -0.12,-7.26 -0.47,-7.85 -4.57,-8.08 z m 96.49,0 v -2.69 c 5.78,0.11 8.2,0.23 11.13,0.23 2.81,0 5.43,-0.12 11.13,-0.23 v 2.69 l -3.98,0.24 c -3.13,0.23 -3.4,0.58 -3.4,6.44 v 19.1 c 0,4.1 5.98,8.44 11.52,8.44 5.94,0 9.93,-4.45 9.93,-11.37 v -25.54 c 4.1,0.11 5.5,0.23 7.15,0.23 1.28,0 2.92,-0.12 7.38,-0.23 v 2.69 l -3.64,0.24 c -3.16,0.23 -3.28,0.58 -3.39,6.44 v 17.46 c 0,10.43 -4.93,15.59 -15,15.59 -3.28,0 -5.16,-0.47 -7.11,-2.23 l -6.84,-5.98 v 30.59 l -0.78,0.82 c -3.98,-1.52 -6.91,-2.34 -14.06,-3.4 v -2.46 h 5.04 c 1.64,0 2.34,-1.05 2.34,-3.75 v -46.64 c -0.16,-5.86 -0.27,-6.21 -3.4,-6.44 z m 121.05,39.38 -0.82,0.35 c -4.33,-1.88 -9.25,-3.17 -13.94,-3.64 v -2.57 h 3.28 c 3.75,-0.12 3.87,-0.47 3.98,-6.57 v -20.27 c 0,-5.86 -0.23,-6.21 -3.4,-6.44 l -4.1,-0.24 v -2.69 c 6.33,0.11 8.91,0.23 11.25,0.23 2.35,0 4.92,-0.12 11.25,-0.23 v 2.69 l -4.1,0.24 c -3.16,0.35 -3.28,0.58 -3.4,6.44 z m -4.1,20.04 c -2.69,0 -5.04,-2.35 -5.04,-5.04 0,-2.7 2.35,-5.04 4.92,-5.04 2.7,0 5.04,2.34 5.04,5.04 0,2.46 -2.34,5.04 -4.92,5.04 z m 43.24,-48.99 c 0,-6.21 -0.23,-8.91 -0.93,-12.54 4.8,-1.52 8.2,-2.11 12.3,-2.11 11.84,0 20.16,6.21 20.16,15.12 0,2.81 -0.78,4.8 -2.46,6.56 -2.35,2.35 -5.28,3.4 -13.25,4.92 -7.38,1.41 -9.84,3.28 -9.84,7.39 0,4.45 3.05,7.03 8.67,7.03 6.1,0 10.67,-3.17 10.67,-7.38 v -2.11 h 2.46 c 0.15,5.27 0.27,7.38 0.47,10.19 -4.93,1.64 -7.97,2.23 -11.72,2.23 -10.43,0 -16.88,-4.92 -16.88,-13.01 0,-4.45 1.99,-7.27 6.21,-9.26 2.35,-1.05 7.15,-2.58 13.25,-3.87 4.1,-0.93 5.74,-2.69 5.74,-6.21 0,-4.92 -4.46,-8.32 -10.78,-8.32 -6.68,0 -11.25,3.17 -11.25,7.62 v 3.75 z m 134.57,28.95 -0.82,0.35 c -4.33,-1.88 -9.25,-3.17 -13.94,-3.64 v -2.57 h 3.28 c 3.75,-0.12 3.87,-0.47 3.98,-6.57 v -20.27 c 0,-5.86 -0.23,-6.21 -3.39,-6.44 l -4.11,-0.24 v -2.69 c 6.33,0.11 8.91,0.23 11.25,0.23 2.35,0 4.93,-0.12 11.25,-0.23 v 2.69 l -4.1,0.24 c -3.16,0.35 -3.28,0.58 -3.4,6.44 z m -4.1,20.04 c -2.69,0 -5.04,-2.35 -5.04,-5.04 0,-2.7 2.35,-5.04 4.93,-5.04 2.69,0 5.03,2.34 5.03,5.04 0,2.46 -2.34,5.04 -4.92,5.04 z m 43.24,-48.99 c 0,-6.21 -0.23,-8.91 -0.93,-12.54 4.8,-1.52 8.2,-2.11 12.3,-2.11 11.84,0 20.16,6.21 20.16,15.12 0,2.81 -0.82,4.8 -2.46,6.56 -2.35,2.35 -5.28,3.4 -13.25,4.92 -7.38,1.41 -9.84,3.28 -9.84,7.39 0,4.45 3.05,7.03 8.67,7.03 6.1,0 10.67,-3.17 10.67,-7.38 v -2.11 h 2.46 c 0.12,5.27 0.23,7.38 0.47,10.19 -4.93,1.64 -7.97,2.23 -11.72,2.23 -10.43,0 -16.88,-4.92 -16.88,-13.01 0,-4.45 2,-7.27 6.21,-9.26 2.35,-1.05 7.15,-2.58 13.25,-3.87 4.1,-0.93 5.74,-2.69 5.74,-6.21 0,-4.92 -4.45,-8.32 -10.78,-8.32 -6.68,0 -11.25,3.17 -11.25,7.62 v 3.75 z m 127.19,29.3 2.81,17.69 c 0.12,0.12 0.12,0.35 0.12,0.47 0,1.76 -1.99,3.52 -3.87,3.52 -1.99,0 -3.86,-1.76 -3.86,-3.52 v -0.47 l 2.93,-17.69 z m 16.29,0 2.81,17.69 c 0.12,0.12 0.12,0.35 0.12,0.47 0,1.76 -1.99,3.52 -3.87,3.52 -1.99,0 -3.86,-1.76 -3.86,-3.52 v -0.47 l 2.93,-17.69 z m 76.84,-14.18 c 0,4.1 0.47,7.85 1.29,11.01 -3.64,2.23 -6.68,3.17 -10.43,3.17 -4.46,0 -9.38,-1.64 -14.77,-5.16 -6.33,-3.87 -9.61,-10.08 -9.61,-18.16 0,-12.07 8.44,-20.63 20.63,-20.63 4.68,0 11.36,1.64 12.3,3.05 l 1.88,2.81 -0.82,1.41 c -3.52,-1.88 -6.21,-2.58 -9.5,-2.58 -9.96,0 -16.52,7.73 -16.52,19.57 0,9.61 4.45,15 12.54,15 4.1,0 8.32,-1.64 9.96,-3.98 l 0.59,-5.51 z m 60.93,13.83 -0.82,0.35 c -4.33,-1.88 -9.25,-3.17 -13.94,-3.64 v -2.57 h 3.28 c 3.75,-0.12 3.87,-0.47 3.98,-6.57 v -20.27 c 0,-5.86 -0.23,-6.21 -3.39,-6.44 l -4.11,-0.24 v -2.69 c 6.33,0.11 8.91,0.23 11.25,0.23 2.35,0 4.93,-0.12 11.25,-0.23 v 2.69 l -4.1,0.24 c -3.16,0.35 -3.28,0.58 -3.4,6.44 z m -4.1,20.04 c -2.69,0 -5.04,-2.35 -5.04,-5.04 0,-2.7 2.35,-5.04 4.93,-5.04 2.69,0 5.04,2.34 5.04,5.04 0,2.46 -2.35,5.04 -4.93,5.04 z m 41.49,-59.42 v -2.69 c 5.97,0.11 8.55,0.23 11.13,0.23 2.11,0 5.39,-0.12 12.77,-0.23 v 2.69 l -4.68,0.24 c -4.11,0.23 -4.22,0.35 -4.22,6.44 v 15.47 c 0,5.51 3.63,9.96 8.08,9.96 2.7,0 4.57,-1.29 5.98,-4.1 h 1.88 l 0.82,10.78 c -1.06,0.59 -2.58,0.94 -4.22,0.94 -2.7,0 -5.51,-1.41 -7.5,-3.64 l -5.04,-5.97 v 9.26 l -0.82,0.35 c -4.34,-1.88 -9.26,-3.17 -13.95,-3.64 v -2.57 h 3.28 c 3.75,-0.12 3.87,-0.47 3.99,-6.57 v -20.27 c -0.12,-5.86 -0.24,-6.21 -3.4,-6.44 z m 105.08,25.55 c 0,4.1 0.46,7.85 1.28,11.01 -3.63,2.23 -6.68,3.17 -10.42,3.17 -4.46,0 -9.38,-1.64 -14.77,-5.16 -6.33,-3.87 -9.61,-10.08 -9.61,-18.16 0,-12.07 8.44,-20.63 20.62,-20.63 4.69,0 11.37,1.64 12.31,3.05 l 1.87,2.81 -0.82,1.41 c -3.51,-1.88 -6.21,-2.58 -9.49,-2.58 -9.96,0 -16.52,7.73 -16.52,19.57 0,9.61 4.45,15 12.54,15 4.1,0 8.32,-1.64 9.96,-3.98 l 0.58,-5.51 z m 45.93,-25.55 v -2.69 c 6.33,0.11 8.91,0.23 11.25,0.23 2.35,0 4.92,-0.12 11.25,-0.23 v 2.69 l -4.1,0.24 c -3.16,0.35 -3.28,0.58 -3.4,6.44 v 55.43 l -0.82,0.82 c -3.83,-1.52 -6.91,-2.34 -13.94,-3.4 v -2.46 h 5.04 c 1.52,0 2.26,-1.05 2.26,-3.75 v -46.64 c -0.15,-5.86 -0.27,-6.21 -3.44,-6.44 z m 89.93,3.87 -1.22,0.82 c -5.74,-3.4 -7.85,-4.22 -11.71,-4.22 -5.86,0 -10.79,2.69 -13.25,7.03 -1.75,2.93 -2.34,5.51 -2.58,10.78 h 13.25 c 6.44,0 10.54,0.35 16.29,1.17 0,1.29 0.11,2.11 0.11,3.17 0,10.43 -6.68,17.11 -16.87,17.11 -3.17,0 -7.03,-1.17 -10.78,-3.28 -7.39,-4.34 -10.32,-9.85 -10.32,-19.34 0,-5.51 1.29,-10.43 3.75,-13.83 3.64,-4.8 9.61,-7.5 16.41,-7.5 3.4,0 6.68,0.71 10.31,2.35 2.35,0.93 4.34,2.11 4.69,2.69 z m -7.08,17.69 c -4.57,-0.11 -6.79,-0.23 -10.07,-0.23 -4.22,0 -6.57,0.12 -11.37,0.47 0,4.22 0.39,6.21 1.52,8.67 1.88,3.87 5.63,6.33 9.96,6.33 3.05,0 5.39,-1.17 7.04,-3.64 1.99,-2.92 2.57,-5.5 2.92,-11.6 z m 65.04,-14.06 c -2.69,0 -5.15,-2.46 -5.15,-5.16 0,-2.81 2.46,-5.27 5.04,-5.27 2.93,0 5.5,2.46 5.5,5.27 0,2.7 -2.57,5.16 -5.39,5.16 z m 34.57,-32.58 v -2.69 c 6.21,0.23 8.79,0.23 11.25,0.23 2.46,0 5.04,0 11.25,-0.23 v 2.69 l -4.1,0.35 c -3.16,0.36 -3.28,0.47 -3.4,6.45 v 16.99 c 2.82,-1.64 5.63,-2.22 9.73,-2.22 2.7,0 4.92,0.46 6.33,1.4 l 10.31,6.68 c 3.52,2.35 7.74,11.6 7.74,17.35 0,9.96 -8.21,17.81 -18.64,17.81 -3.4,0 -6.56,-0.82 -8.08,-2.23 l -7.39,-6.8 v 8.68 l -0.82,0.35 c -4.33,-1.88 -9.25,-3.17 -13.94,-3.64 v -2.57 h 3.28 c 3.75,-0.12 3.87,-0.47 3.98,-6.57 v -45.23 c -0.11,-5.98 -0.23,-6.09 -3.39,-6.45 z m 15,50.16 c 0,1.29 0.47,2.23 1.64,3.75 2.58,3.4 6.45,5.04 10.79,5.04 8.55,0 13.94,-5.86 13.94,-15.24 0,-10.07 -6.09,-17.57 -14.18,-17.57 -4.92,0 -8.67,1.64 -12.19,5.27 z m 94.34,-25.08 v -2.69 c 6.37,0.11 8.91,0.23 11.25,0.23 2.34,0 4.92,-0.12 11.25,-0.23 v 2.69 l -4.06,0.24 c -3.21,0.35 -3.32,0.58 -3.44,6.44 v 55.43 l -0.78,0.82 c -3.87,-1.52 -6.92,-2.34 -13.95,-3.4 v -2.46 h 5.04 c 1.53,0 2.23,-1.05 2.23,-3.75 v -46.64 c -0.12,-5.86 -0.24,-6.21 -3.4,-6.44 z m 75.59,39.73 c -13.13,0 -22.15,-9.26 -22.15,-22.62 0,-12.77 7.85,-21.33 19.57,-21.33 13.83,0 23.79,9.61 23.79,23.09 0,12.19 -8.91,20.86 -21.21,20.86 z m -1.64,-2.93 c 8.43,0 14.41,-9.03 14.41,-21.21 0,-10.43 -4.45,-16.88 -11.84,-16.88 -8.79,0 -14.76,8.67 -14.76,21.45 0,10.78 4.33,16.64 12.19,16.64 z m 83.63,-4.92 v -25.9 c 0,-6.68 3.05,-9.49 9.96,-9.49 1.99,0 4.22,0.46 4.69,1.05 l 4.33,4.8 -1.17,1.53 c -2.34,-1.41 -3.52,-1.76 -5.27,-1.76 -3.52,0 -4.92,1.88 -4.92,6.21 v 23.56 h 11.48 l 0.82,4.92 -12.3,-0.59 v 3.4 c 0,3.75 0.23,7.62 0.93,12.77 l -1.05,1.06 c -2.23,-1.41 -4.81,-2.58 -7.62,-3.4 0.24,-2.58 0.35,-4.34 0.35,-7.15 v -6.33 l -7.03,-3.16 v -1.88 z m 59.37,7.85 2.82,17.69 c 0.11,0.12 0.11,0.35 0.11,0.47 0,1.76 -1.99,3.52 -3.86,3.52 -2,0 -3.87,-1.76 -3.87,-3.52 v -0.47 l 2.93,-17.69 z m 16.29,0 2.81,17.69 c 0.12,0.12 0.12,0.35 0.12,0.47 0,1.76 -1.99,3.52 -3.87,3.52 -1.99,0 -3.86,-1.76 -3.86,-3.52 v -0.47 l 2.93,-17.69 z m 52.11,-32.23 c -2.69,0 -5.15,-2.46 -5.15,-5.16 0,-2.81 2.46,-5.27 5.03,-5.27 2.93,0 5.51,2.46 5.51,5.27 0,2.7 -2.58,5.16 -5.39,5.16 z m -1477.19,802.5 v -2.69 c 5.28,0.11 8.44,0.23 13.13,0.23 4.69,0 7.97,-0.12 13.24,-0.23 v 2.69 l -4.33,0.24 c -4.11,0.23 -4.46,0.93 -4.57,8.08 v 38.09 c 0,4.57 0.11,6.44 0.35,9.02 h 13.94 c 2.58,-0.12 3.4,-0.7 3.63,-3.05 l 0.36,-7.03 h 2.81 c 0,5.86 0.12,9.38 0.58,14.42 l -11.95,-0.12 c -5.15,-0.12 -6.09,-0.12 -7.5,-0.12 h -14.18 c -1.05,0 -5.86,0.12 -12.19,0.24 h -6.09 c 0.47,-5.04 0.59,-8.56 0.59,-14.42 h 2.81 l 0.35,7.03 c 0.23,2.35 0.94,2.93 3.63,3.05 h 13.95 c 0.23,-2.81 0.35,-4.92 0.35,-9.02 v -38.09 c -0.12,-7.26 -0.47,-7.85 -4.57,-8.08 z m 41.33,0 v -2.69 c 5.74,0.11 8.21,0.23 11.14,0.23 2.81,0 5.39,-0.12 11.13,-0.23 v 2.69 l -3.99,0.24 c -3.16,0.23 -3.4,0.58 -3.4,6.44 v 19.1 c 0,4.1 5.98,8.44 11.49,8.44 5.98,0 9.96,-4.45 9.96,-11.37 v -25.54 c 4.1,0.11 5.51,0.23 7.15,0.23 1.29,0 2.93,-0.12 7.38,-0.23 v 2.69 l -3.63,0.24 c -3.17,0.23 -3.28,0.58 -3.4,6.44 v 17.46 c 0,10.43 -4.92,15.59 -15,15.59 -3.28,0 -5.16,-0.47 -7.15,-2.23 l -6.8,-5.98 v 30.59 l -0.82,0.82 c -3.98,-1.52 -6.91,-2.34 -14.06,-3.4 v -2.46 h 5.04 c 1.64,0 2.34,-1.05 2.34,-3.75 v -46.64 c -0.11,-5.86 -0.23,-6.21 -3.39,-6.44 z m 68.67,39.38 -0.82,0.35 c -4.33,-1.88 -9.25,-3.17 -13.94,-3.64 v -2.57 h 3.28 c 3.75,-0.12 3.87,-0.47 3.98,-6.57 v -20.27 c 0,-5.86 -0.23,-6.21 -3.39,-6.44 l -4.11,-0.24 v -2.69 c 6.33,0.11 8.91,0.23 11.25,0.23 2.35,0 4.93,-0.12 11.25,-0.23 v 2.69 l -4.1,0.24 c -3.16,0.35 -3.28,0.58 -3.4,6.44 z m -4.1,20.04 c -2.69,0 -5.04,-2.35 -5.04,-5.04 0,-2.7 2.35,-5.04 4.93,-5.04 2.69,0 5.03,2.34 5.03,5.04 0,2.46 -2.34,5.04 -4.92,5.04 z m 17.07,-48.99 c 0,-6.21 -0.23,-8.91 -0.93,-12.54 4.8,-1.52 8.2,-2.11 12.3,-2.11 11.84,0 20.16,6.21 20.16,15.12 0,2.81 -0.82,4.8 -2.46,6.56 -2.35,2.35 -5.28,3.4 -13.25,4.92 -7.38,1.41 -9.84,3.28 -9.84,7.39 0,4.45 3.05,7.03 8.67,7.03 6.09,0 10.67,-3.17 10.67,-7.38 v -2.11 h 2.46 c 0.11,5.27 0.23,7.38 0.46,10.19 -4.92,1.64 -7.96,2.23 -11.71,2.23 -10.43,0 -16.88,-4.92 -16.88,-13.01 0,-4.45 1.99,-7.27 6.21,-9.26 2.35,-1.05 7.15,-2.58 13.24,-3.87 4.11,-0.93 5.75,-2.69 5.75,-6.21 0,-4.92 -4.46,-8.32 -10.78,-8.32 -6.68,0 -11.25,3.17 -11.25,7.62 v 3.75 z m 73.91,28.95 -0.82,0.35 c -4.34,-1.88 -9.26,-3.17 -13.95,-3.64 v -2.57 h 3.28 c 3.75,-0.12 3.87,-0.47 3.99,-6.57 v -20.27 c 0,-5.86 -0.24,-6.21 -3.4,-6.44 l -4.1,-0.24 v -2.69 c 6.33,0.11 8.91,0.23 11.25,0.23 2.34,0 4.92,-0.12 11.25,-0.23 v 2.69 l -4.1,0.24 c -3.17,0.35 -3.28,0.58 -3.4,6.44 z m -4.1,20.04 c -2.7,0 -5.04,-2.35 -5.04,-5.04 0,-2.7 2.34,-5.04 4.92,-5.04 2.7,0 5.04,2.34 5.04,5.04 0,2.46 -2.34,5.04 -4.92,5.04 z m 17.03,-48.99 c 0,-6.21 -0.24,-8.91 -0.94,-12.54 4.81,-1.52 8.2,-2.11 12.31,-2.11 11.83,0 20.15,6.21 20.15,15.12 0,2.81 -0.82,4.8 -2.46,6.56 -2.34,2.35 -5.27,3.4 -13.24,4.92 -7.38,1.41 -9.84,3.28 -9.84,7.39 0,4.45 3.04,7.03 8.67,7.03 6.09,0 10.66,-3.17 10.66,-7.38 v -2.11 h 2.46 c 0.12,5.27 0.24,7.38 0.47,10.19 -4.92,1.64 -7.97,2.23 -11.72,2.23 -10.43,0 -16.87,-4.92 -16.87,-13.01 0,-4.45 1.99,-7.27 6.21,-9.26 2.34,-1.05 7.15,-2.58 13.24,-3.87 4.1,-0.93 5.74,-2.69 5.74,-6.21 0,-4.92 -4.45,-8.32 -10.78,-8.32 -6.68,0 -11.25,3.17 -11.25,7.62 v 3.75 z m 60.66,0 c 0,-6.21 -0.23,-8.91 -0.93,-12.54 4.8,-1.52 8.2,-2.11 12.3,-2.11 11.84,0 20.16,6.21 20.16,15.12 0,2.81 -0.82,4.8 -2.46,6.56 -2.35,2.35 -5.28,3.4 -13.25,4.92 -7.38,1.41 -9.84,3.28 -9.84,7.39 0,4.45 3.05,7.03 8.67,7.03 6.09,0 10.67,-3.17 10.67,-7.38 v -2.11 h 2.46 c 0.11,5.27 0.23,7.38 0.46,10.19 -4.92,1.64 -7.96,2.23 -11.71,2.23 -10.43,0 -16.88,-4.92 -16.88,-13.01 0,-4.45 1.99,-7.27 6.21,-9.26 2.35,-1.05 7.15,-2.58 13.24,-3.87 4.11,-0.93 5.75,-2.69 5.75,-6.21 0,-4.92 -4.46,-8.32 -10.78,-8.32 -6.68,0 -11.25,3.17 -11.25,7.62 v 3.75 z m 35.94,-10.43 v -2.69 c 6.33,0.11 8.91,0.23 11.48,0.23 2.82,0 5.16,-0.12 10.67,-0.23 v 2.69 l -3.75,0.24 c -3.17,0.23 -3.28,0.58 -3.28,6.44 v 19.1 c 0,4.1 5.86,8.44 11.25,8.44 4.92,0 8.2,-4.57 8.2,-11.37 v -16.17 c 0,-5.86 -0.23,-6.21 -3.28,-6.44 l -4.22,-0.24 v -2.69 c 6.33,0.11 8.91,0.23 11.25,0.23 2.34,0 4.92,-0.12 11.25,-0.23 v 2.69 l -4.1,0.24 c -3.17,0.35 -3.28,0.58 -3.28,6.44 v 19.1 c 0,4.1 5.86,8.44 11.25,8.44 4.92,0 8.2,-4.57 8.2,-11.37 v -25.54 c 4.1,0.11 5.63,0.23 7.15,0.23 1.41,0 3.05,-0.12 7.97,-0.23 v 2.69 l -4.22,0.24 c -3.16,0.35 -3.16,0.58 -3.28,6.44 v 18.63 c 0,8.91 -5.28,14.42 -13.48,14.42 -3.28,0 -5.74,-0.71 -7.38,-2.23 l -6.92,-6.09 c -2.81,5.97 -6.44,8.32 -12.77,8.32 -3.28,0 -5.86,-0.71 -7.38,-2.23 l -6.21,-5.74 v 7.62 l -0.82,0.35 c -4.46,-1.88 -9.38,-3.17 -14.07,-3.64 v -2.57 h 3.29 c 3.75,-0.12 3.86,-0.47 3.98,-6.57 v -20.27 c -0.12,-5.86 -0.23,-6.21 -3.28,-6.44 z m 107.23,4.92 -0.47,-7.61 c 4.45,0.11 5.74,0.23 7.03,0.23 1.17,0 1.64,0 4.8,-0.23 h 1.88 v 2.69 l -3.52,0.12 c -2.34,0.35 -2.46,0.58 -2.57,5.27 v 16.41 c 0,13.12 -3.75,17.93 -14.18,17.93 -3.99,0 -7.5,-0.94 -10.9,-3.05 l -4.81,-2.81 v -5.86 l 2.35,-0.7 1.17,2.81 c 1.87,4.22 2.81,4.8 6.91,4.8 8.56,0 12.07,-3.28 12.31,-11.48 l -8.91,-1.64 c -12.3,-2.23 -17.34,-6.45 -17.34,-14.42 0,-6.91 4.1,-10.89 11.25,-10.89 1.75,0 3.16,0.23 3.86,0.7 z m 0,3.75 c -2.58,-3.63 -8.32,-7.03 -11.84,-7.03 -3.63,0 -6.68,3.17 -6.68,7.15 0,3.28 1.76,6.45 4.34,8.2 2.34,1.29 7.26,2.58 14.18,3.64 z m 17.69,-8.67 v -2.69 c 6.33,0.11 8.91,0.23 11.25,0.23 2.35,0 4.92,-0.12 11.25,-0.23 v 2.69 l -4.1,0.24 c -3.16,0.35 -3.28,0.58 -3.4,6.44 v 55.43 l -0.82,0.82 c -3.87,-1.52 -6.91,-2.34 -13.94,-3.4 v -2.46 h 5.04 c 1.52,0 2.22,-1.05 2.22,-3.75 v -46.64 c -0.12,-5.86 -0.23,-6.21 -3.4,-6.44 z m 26.21,0 v -2.69 c 6.33,0.11 8.91,0.23 11.25,0.23 2.35,0 4.92,-0.12 11.25,-0.23 v 2.69 l -4.1,0.24 c -3.16,0.35 -3.28,0.58 -3.4,6.44 v 55.43 l -0.82,0.82 c -3.86,-1.52 -6.91,-2.34 -13.94,-3.4 v -2.46 h 5.04 c 1.52,0 2.22,-1.05 2.22,-3.75 v -46.64 c -0.11,-5.86 -0.23,-6.21 -3.4,-6.44 z m 47.5,-25.08 v -2.69 c 6.21,0.23 8.79,0.23 11.25,0.23 2.46,0 5.04,0 11.25,-0.23 v 2.69 l -4.1,0.35 c -3.16,0.36 -3.28,0.47 -3.4,6.45 v 16.99 c 2.82,-1.64 5.63,-2.22 9.73,-2.22 2.7,0 4.92,0.46 6.33,1.4 l 10.31,6.68 c 3.52,2.35 7.73,11.6 7.73,17.35 0,9.96 -8.2,17.81 -18.63,17.81 -3.4,0 -6.56,-0.82 -8.08,-2.23 l -7.39,-6.8 v 8.68 l -0.82,0.35 c -4.33,-1.88 -9.25,-3.17 -13.94,-3.64 v -2.57 h 3.28 c 3.75,-0.12 3.87,-0.47 3.98,-6.57 v -45.23 c -0.11,-5.98 -0.23,-6.09 -3.4,-6.45 z m 15,50.16 c 0,1.29 0.47,2.23 1.64,3.75 2.58,3.4 6.45,5.04 10.79,5.04 8.55,0 13.94,-5.86 13.94,-15.24 0,-10.07 -6.09,-17.57 -14.18,-17.57 -4.92,0 -8.67,1.64 -12.19,5.27 z m 40.28,-25.08 v -2.69 c 5.97,0.11 8.55,0.23 11.13,0.23 2.11,0 5.39,-0.12 12.77,-0.23 v 2.69 l -4.68,0.24 c -4.11,0.23 -4.22,0.35 -4.22,6.44 v 15.47 c 0,5.51 3.63,9.96 8.08,9.96 2.7,0 4.57,-1.29 5.98,-4.1 h 1.87 l 0.82,10.78 c -1.05,0.59 -2.57,0.94 -4.21,0.94 -2.7,0 -5.51,-1.41 -7.5,-3.64 l -5.04,-5.97 v 9.26 l -0.82,0.35 c -4.34,-1.88 -9.26,-3.17 -13.95,-3.64 v -2.57 h 3.28 c 3.75,-0.12 3.87,-0.47 3.99,-6.57 v -20.27 c -0.12,-5.86 -0.24,-6.21 -3.4,-6.44 z m 50.54,39.38 -0.82,0.35 c -4.33,-1.88 -9.25,-3.17 -13.94,-3.64 v -2.57 h 3.28 c 3.75,-0.12 3.87,-0.47 3.98,-6.57 v -20.27 c 0,-5.86 -0.23,-6.21 -3.39,-6.44 l -4.11,-0.24 v -2.69 c 6.33,0.11 8.91,0.23 11.25,0.23 2.35,0 4.93,-0.12 11.25,-0.23 v 2.69 l -4.1,0.24 c -3.16,0.35 -3.28,0.58 -3.4,6.44 z m -4.1,20.04 c -2.69,0 -5.04,-2.35 -5.04,-5.04 0,-2.7 2.35,-5.04 4.92,-5.04 2.7,0 5.04,2.34 5.04,5.04 0,2.46 -2.34,5.04 -4.92,5.04 z m 50.35,-62.11 c 4.1,0.11 5.51,0.23 7.15,0.23 1.29,0 2.93,-0.12 7.38,-0.23 v 2.69 l -3.63,0.24 c -3.16,0.23 -3.28,0.58 -3.4,6.44 v 17.46 c 0,10.43 -4.92,15.59 -15,15.59 -3.28,0 -5.15,-0.47 -7.14,-2.23 l -6.8,-5.98 v 7.86 l -0.82,0.35 c -4.34,-1.88 -9.38,-3.17 -14.06,-3.64 v -2.57 h 3.39 c 3.64,-0.12 3.87,-0.47 3.99,-6.57 v -20.27 c 0,-5.86 -0.35,-6.21 -3.4,-6.44 l -3.98,-0.24 v -2.69 c 5.74,0.11 8.2,0.23 11.13,0.23 2.81,0 5.39,-0.12 11.13,-0.23 v 2.69 l -3.98,0.24 c -3.17,0.23 -3.4,0.58 -3.4,6.44 v 19.1 c 0,4.1 5.97,8.44 11.48,8.44 5.98,0 9.96,-4.45 9.96,-11.37 z m 24.26,34.57 v -25.9 c 0,-6.68 3.05,-9.49 9.96,-9.49 1.99,0 4.22,0.46 4.69,1.05 l 4.34,4.8 -1.18,1.53 c -2.34,-1.41 -3.51,-1.76 -5.27,-1.76 -3.52,0 -4.92,1.88 -4.92,6.21 v 23.56 h 11.48 l 0.82,4.92 -12.3,-0.59 v 3.4 c 0,3.75 0.23,7.62 0.94,12.77 l -1.06,1.06 c -2.23,-1.41 -4.8,-2.58 -7.62,-3.4 0.24,-2.58 0.36,-4.34 0.36,-7.15 v -6.33 l -7.04,-3.16 v -1.88 z m 31.64,-24.38 c -2.69,0 -5.15,-2.46 -5.15,-5.16 0,-2.81 2.46,-5.27 5.03,-5.27 2.93,0 5.51,2.46 5.51,5.27 0,2.7 -2.58,5.16 -5.39,5.16 z"
       style="fill:#000000;fill-opacity:1;fill-rule:nonzero;stroke:none"
       transform="matrix(0.13333333,0,0,-0.13333333,0,961.33333)"
       clip-path="url(#clipPath62)" />
  </g>
</svg>
