<!-- Created with Inkscape (http://www.inkscape.org/) -->

<svg
   version="1.1"
   id="svg1"
   width="720"
   height="960"
   viewBox="0 0 720 960"
   xmlns="http://www.w3.org/2000/svg"
   xmlns:svg="http://www.w3.org/2000/svg">
  <defs
     id="defs1" />
  <g
     id="g1">
    <path
       id="path1"
       d="M 270,1170 H 5130"
       style="fill:none;stroke:#000000;stroke-width:10;stroke-linecap:butt;stroke-linejoin:miter;stroke-miterlimit:10;stroke-dasharray:none;stroke-opacity:1"
       transform="matrix(0.13333333,0,0,-0.13333333,0,960)" />
    <path
       id="path2"
       d="M 5130,1170 V 6030"
       style="fill:none;stroke:#000000;stroke-width:10;stroke-linecap:butt;stroke-linejoin:miter;stroke-miterlimit:10;stroke-dasharray:none;stroke-opacity:1"
       transform="matrix(0.13333333,0,0,-0.13333333,0,960)" />
    <path
       id="path3"
       d="M 5130,6030 H 270"
       style="fill:none;stroke:#000000;stroke-width:10;stroke-linecap:butt;stroke-linejoin:miter;stroke-miterlimit:10;stroke-dasharray:none;stroke-opacity:1"
       transform="matrix(0.13333333,0,0,-0.13333333,0,960)" />
    <path
       id="path4"
       d="M 270,6030 V 1170"
       style="fill:none;stroke:#000000;stroke-width:10;stroke-linecap:butt;stroke-linejoin:miter;stroke-miterlimit:10;stroke-dasharray:none;stroke-opacity:1"
       transform="matrix(0.13333333,0,0,-0.13333333,0,960)" />
    <path
       id="path5"
       d="m 4320,2250 c 0,596.46 -483.54,1080 -1080,1080 -596.46,0 -1080,-483.54 -1080,-1080 0,-596.46 483.54,-1080 1080,-1080 596.46,0 1080,483.54 1080,1080 z"
       style="fill:none;stroke:#000000;stroke-width:10;stroke-linecap:butt;stroke-linejoin:miter;stroke-miterlimit:10;stroke-dasharray:none;stroke-opacity:1"
       transform="matrix(0.13333333,0,0,-0.13333333,0,960)" />
    <path
       id="path6"
       d="m 3250,3210 -30,10 -50,-20 -50,-30 -60,-60 -60,-70 -70,-90 -70,-100 -70,-120 -80,-130 -70,-130 -80,-150 -70,-150 -70,-160 -70,-150 -50,-160 -60,-150 -40,-140 -40,-130 -30,-120 -20,-110 -10,-100 v -80 l 10,-60 10,-40 30,-20 30,-10 50,20 50,30 60,60 60,70 70,90 70,100 70,120 80,130 70,130 80,150 70,150 70,160 70,150 50,160 60,150 40,140 40,130 30,120 20,110 10,100 v 80 l -10,60 -10,40 -30,20"
       style="fill:none;stroke:#000000;stroke-width:10;stroke-linecap:butt;stroke-linejoin:miter;stroke-miterlimit:10;stroke-dasharray:none;stroke-opacity:1"
       transform="matrix(0.13333333,0,0,-0.13333333,0,960)" />
    <path
       id="path7"
       d="M 1350,2250 V 4950"
       style="fill:none;stroke:#000000;stroke-width:10;stroke-linecap:butt;stroke-linejoin:miter;stroke-miterlimit:10;stroke-dasharray:none;stroke-opacity:1"
       transform="matrix(0.13333333,0,0,-0.13333333,0,960)" />
    <path
       id="path8"
       d="M 1620,2250 V 4950"
       style="fill:none;stroke:#000000;stroke-width:10;stroke-linecap:butt;stroke-linejoin:miter;stroke-miterlimit:10;stroke-dasharray:none;stroke-opacity:1"
       transform="matrix(0.13333333,0,0,-0.13333333,0,960)" />
    <path
       id="path9"
       d="M 1890,2250 V 4950"
       style="fill:none;stroke:#000000;stroke-width:10;stroke-linecap:butt;stroke-linejoin:miter;stroke-miterlimit:10;stroke-dasharray:none;stroke-opacity:1"
       transform="matrix(0.13333333,0,0,-0.13333333,0,960)" />
    <path
       id="path10"
       d="M 2160,2250 V 4950"
       style="fill:none;stroke:#000000;stroke-width:10;stroke-linecap:butt;stroke-linejoin:miter;stroke-miterlimit:10;stroke-dasharray:none;stroke-opacity:1"
       transform="matrix(0.13333333,0,0,-0.13333333,0,960)" />
    <path
       id="path11"
       d="M 2430,2250 V 4950"
       style="fill:none;stroke:#000000;stroke-width:10;stroke-linecap:butt;stroke-linejoin:miter;stroke-miterlimit:10;stroke-dasharray:none;stroke-opacity:1"
       transform="matrix(0.13333333,0,0,-0.13333333,0,960)" />
    <path
       id="path12"
       d="M 2700,2250 V 4950"
       style="fill:none;stroke:#000000;stroke-width:10;stroke-linecap:butt;stroke-linejoin:miter;stroke-miterlimit:10;stroke-dasharray:none;stroke-opacity:1"
       transform="matrix(0.13333333,0,0,-0.13333333,0,960)" />
    <path
       id="path13"
       d="M 2970,2250 V 4950"
       style="fill:none;stroke:#000000;stroke-width:10;stroke-linecap:butt;stroke-linejoin:miter;stroke-miterlimit:10;stroke-dasharray:none;stroke-opacity:1"
       transform="matrix(0.13333333,0,0,-0.13333333,0,960)" />
    <path
       id="path14"
       d="M 3240,2250 V 4950"
       style="fill:none;stroke:#000000;stroke-width:10;stroke-linecap:butt;stroke-linejoin:miter;stroke-miterlimit:10;stroke-dasharray:none;stroke-opacity:1"
       transform="matrix(0.13333333,0,0,-0.13333333,0,960)" />
    <path
       id="path15"
       d="M 3510,2250 V 4950"
       style="fill:none;stroke:#000000;stroke-width:10;stroke-linecap:butt;stroke-linejoin:miter;stroke-miterlimit:10;stroke-dasharray:none;stroke-opacity:1"
       transform="matrix(0.13333333,0,0,-0.13333333,0,960)" />
    <path
       id="path16"
       d="M 3780,2250 V 4950"
       style="fill:none;stroke:#000000;stroke-width:10;stroke-linecap:butt;stroke-linejoin:miter;stroke-miterlimit:10;stroke-dasharray:none;stroke-opacity:1"
       transform="matrix(0.13333333,0,0,-0.13333333,0,960)" />
    <path
       id="path17"
       d="M 4050,2250 V 4950"
       style="fill:none;stroke:#000000;stroke-width:10;stroke-linecap:butt;stroke-linejoin:miter;stroke-miterlimit:10;stroke-dasharray:none;stroke-opacity:1"
       transform="matrix(0.13333333,0,0,-0.13333333,0,960)" />
    <path
       id="path18"
       d="M 1350,2250 H 4050"
       style="fill:none;stroke:#000000;stroke-width:10;stroke-linecap:butt;stroke-linejoin:miter;stroke-miterlimit:10;stroke-dasharray:none;stroke-opacity:1"
       transform="matrix(0.13333333,0,0,-0.13333333,0,960)" />
    <path
       id="path19"
       d="M 1350,2520 H 4050"
       style="fill:none;stroke:#000000;stroke-width:10;stroke-linecap:butt;stroke-linejoin:miter;stroke-miterlimit:10;stroke-dasharray:none;stroke-opacity:1"
       transform="matrix(0.13333333,0,0,-0.13333333,0,960)" />
    <path
       id="path20"
       d="M 1350,2790 H 4050"
       style="fill:none;stroke:#000000;stroke-width:10;stroke-linecap:butt;stroke-linejoin:miter;stroke-miterlimit:10;stroke-dasharray:none;stroke-opacity:1"
       transform="matrix(0.13333333,0,0,-0.13333333,0,960)" />
    <path
       id="path21"
       d="M 1350,3060 H 4050"
       style="fill:none;stroke:#000000;stroke-width:10;stroke-linecap:butt;stroke-linejoin:miter;stroke-miterlimit:10;stroke-dasharray:none;stroke-opacity:1"
       transform="matrix(0.13333333,0,0,-0.13333333,0,960)" />
    <path
       id="path22"
       d="M 1350,3330 H 4050"
       style="fill:none;stroke:#000000;stroke-width:10;stroke-linecap:butt;stroke-linejoin:miter;stroke-miterlimit:10;stroke-dasharray:none;stroke-opacity:1"
       transform="matrix(0.13333333,0,0,-0.13333333,0,960)" />
    <path
       id="path23"
       d="M 1350,3600 H 4050"
       style="fill:none;stroke:#000000;stroke-width:10;stroke-linecap:butt;stroke-linejoin:miter;stroke-miterlimit:10;stroke-dasharray:none;stroke-opacity:1"
       transform="matrix(0.13333333,0,0,-0.13333333,0,960)" />
    <path
       id="path24"
       d="M 1350,3870 H 4050"
       style="fill:none;stroke:#000000;stroke-width:10;stroke-linecap:butt;stroke-linejoin:miter;stroke-miterlimit:10;stroke-dasharray:none;stroke-opacity:1"
       transform="matrix(0.13333333,0,0,-0.13333333,0,960)" />
    <path
       id="path25"
       d="M 1350,4140 H 4050"
       style="fill:none;stroke:#000000;stroke-width:10;stroke-linecap:butt;stroke-linejoin:miter;stroke-miterlimit:10;stroke-dasharray:none;stroke-opacity:1"
       transform="matrix(0.13333333,0,0,-0.13333333,0,960)" />
    <path
       id="path26"
       d="M 1350,4410 H 4050"
       style="fill:none;stroke:#000000;stroke-width:10;stroke-linecap:butt;stroke-linejoin:miter;stroke-miterlimit:10;stroke-dasharray:none;stroke-opacity:1"
       transform="matrix(0.13333333,0,0,-0.13333333,0,960)" />
    <path
       id="path27"
       d="M 1350,4680 H 4050"
       style="fill:none;stroke:#000000;stroke-width:10;stroke-linecap:butt;stroke-linejoin:miter;stroke-miterlimit:10;stroke-dasharray:none;stroke-opacity:1"
       transform="matrix(0.13333333,0,0,-0.13333333,0,960)" />
    <path
       id="path28"
       d="M 1350,4950 H 4050"
       style="fill:none;stroke:#000000;stroke-width:10;stroke-linecap:butt;stroke-linejoin:miter;stroke-miterlimit:10;stroke-dasharray:none;stroke-opacity:1"
       transform="matrix(0.13333333,0,0,-0.13333333,0,960)" />
    <path
       id="path29"
       d="m 2750,3600 c 0,27.61 -22.39,50 -50,50 -27.61,0 -50,-22.39 -50,-50 0,-27.61 22.39,-50 50,-50 27.61,0 50,22.39 50,50 z"
       style="fill:none;stroke:#000000;stroke-width:10;stroke-linecap:butt;stroke-linejoin:miter;stroke-miterlimit:10;stroke-dasharray:none;stroke-opacity:1"
       transform="matrix(0.13333333,0,0,-0.13333333,0,960)" />
    <path
       id="path30"
       d="m 4050,4410 c 0,298.23 -241.77,540 -540,540"
       style="fill:none;stroke:#00ff00;stroke-width:10;stroke-linecap:butt;stroke-linejoin:miter;stroke-miterlimit:10;stroke-dasharray:none;stroke-opacity:1"
       transform="matrix(0.13333333,0,0,-0.13333333,0,960)" />
    <path
       id="path31"
       d="M 1.4414062,-0.24609375 V 0.0234375 C 1.96875,0.01171875 2.2851563,0 2.7539063,0 3.2226563,0 3.5507813,0.01171875 4.078125,0.0234375 V -0.24609375 L 3.6445313,-0.26953125 C 3.234375,-0.29296875 3.1992188,-0.36328125 3.1875,-1.078125 v -3.8085937 c 0,-0.4570313 0.011719,-0.6445313 0.035156,-0.9023438 H 4.6171875 C 4.875,-5.7773437 4.9570312,-5.71875 4.9804687,-5.484375 l 0.035156,0.703125 h 0.28125 c 0,-0.5859375 0.011719,-0.9375 0.058594,-1.4414062 l -1.1953125,0.011719 c -0.5156249,0.011719 -0.6093749,0.011719 -0.7499999,0.011719 H 1.9921875 c -0.1054688,0 -0.5859375,-0.011719 -1.21875,-0.023437 h -0.609375 c 0.046875,0.5039062 0.0585938,0.8554687 0.0585938,1.4414062 h 0.28125 L 0.5390625,-5.484375 C 0.5625,-5.71875 0.6328125,-5.7773437 0.90234375,-5.7890625 H 2.296875 c 0.023437,0.28125 0.035156,0.4921875 0.035156,0.9023438 V -1.078125 C 2.3203125,-0.3515625 2.2851563,-0.29296875 1.875,-0.26953125 Z m 9.6503908,0 V 0.0234375 C 11.666016,0.01171875 11.912109,0 12.205078,0 c 0.28125,0 0.539063,0.01171875 1.113281,0.0234375 v -0.26953125 l -0.398437,-0.0234375 C 12.603516,-0.29296875 12.580078,-0.328125 12.580078,-0.9140625 v -1.9101563 c 0,-0.4101562 0.597656,-0.84375 1.148438,-0.84375 0.597656,0 0.996093,0.4453125 0.996093,1.1367188 V 0.0234375 C 15.134766,0.01171875 15.275391,0 15.439453,0 c 0.128906,0 0.292969,0.01171875 0.738281,0.0234375 v -0.26953125 l -0.363281,-0.0234375 C 15.498047,-0.29296875 15.486328,-0.328125 15.474609,-0.9140625 v -1.7460938 c 0,-1.0429687 -0.492187,-1.5585937 -1.5,-1.5585937 -0.328125,0 -0.515625,0.046875 -0.714843,0.2226562 l -0.679688,0.5976563 v -3.0585937 l -0.08203,-0.082031 c -0.398438,0.1523438 -0.691406,0.234375 -1.40625,0.3398438 v 0.2460937 h 0.503906 c 0.164063,0 0.234375,0.1054688 0.234375,0.375 v 4.6640625 c -0.01172,0.5859375 -0.02344,0.62109375 -0.339844,0.64453125 z M 23.197266,-4.1835937 23.115234,-4.21875 c -0.433593,0.1875 -0.925781,0.3164062 -1.394531,0.3632812 v 0.2578125 h 0.328125 c 0.375,0.011719 0.386719,0.046875 0.398438,0.65625 v 2.0273438 c 0,0.5859375 -0.02344,0.62109375 -0.339844,0.64453125 l -0.410156,0.0234375 V 0.0234375 C 22.330078,0.01171875 22.587891,0 22.822266,0 c 0.234375,0 0.492187,0.01171875 1.125,0.0234375 v -0.26953125 l -0.410157,-0.0234375 C 23.220703,-0.3046875 23.208984,-0.328125 23.197266,-0.9140625 Z M 22.787109,-6.1875 c -0.269531,0 -0.503906,0.234375 -0.503906,0.5039063 0,0.2695312 0.234375,0.5039062 0.492188,0.5039062 0.269531,0 0.503906,-0.234375 0.503906,-0.5039062 0,-0.2460938 -0.234375,-0.5039063 -0.492188,-0.5039063 z m 4.324219,4.8984375 c 0,0.62109375 -0.02344,0.890625 -0.09375,1.25390625 0.480469,0.15234375 0.820313,0.2109375 1.230469,0.2109375 1.183594,0 2.015625,-0.62109375 2.015625,-1.51171875 0,-0.28125 -0.08203,-0.4804687 -0.246094,-0.65625 C 29.783203,-2.2265625 29.490234,-2.3320313 28.693359,-2.484375 27.955078,-2.625 27.708984,-2.8125 27.708984,-3.2226563 c 0,-0.4453125 0.304688,-0.703125 0.867188,-0.703125 0.609375,0 1.066406,0.3164063 1.066406,0.7382813 v 0.2109375 h 0.246094 c 0.01172,-0.5273438 0.02344,-0.7382813 0.04687,-1.0195313 -0.492188,-0.1640624 -0.796875,-0.2226562 -1.171875,-0.2226562 -1.042969,0 -1.6875,0.4921875 -1.6875,1.3007812 0,0.4453125 0.199219,0.7265625 0.621094,0.9257813 0.234375,0.1054688 0.714843,0.2578125 1.324218,0.3867188 0.410157,0.09375 0.574219,0.2695312 0.574219,0.6210937 0,0.4921875 -0.445312,0.83203125 -1.078125,0.83203125 -0.667969,0 -1.125,-0.31640625 -1.125,-0.76171875 v -0.375 z m 13.456055,-2.8945312 -0.08203,-0.035156 c -0.433594,0.1875 -0.925782,0.3164062 -1.394532,0.3632812 v 0.2578125 h 0.328125 c 0.375,0.011719 0.386719,0.046875 0.398438,0.65625 v 2.0273438 c 0,0.5859375 -0.02344,0.62109375 -0.339844,0.64453125 l -0.410156,0.0234375 V 0.0234375 C 39.700195,0.01171875 39.958008,0 40.192383,0 c 0.234375,0 0.492187,0.01171875 1.125,0.0234375 v -0.26953125 l -0.410156,-0.0234375 C 40.59082,-0.3046875 40.579102,-0.328125 40.567383,-0.9140625 Z M 40.157227,-6.1875 c -0.269532,0 -0.503907,0.234375 -0.503907,0.5039063 0,0.2695312 0.234375,0.5039062 0.492188,0.5039062 0.269531,0 0.503906,-0.234375 0.503906,-0.5039062 0,-0.2460938 -0.234375,-0.5039063 -0.492187,-0.5039063 z m 4.324218,4.8984375 c 0,0.62109375 -0.02344,0.890625 -0.09375,1.25390625 0.480469,0.15234375 0.820313,0.2109375 1.230469,0.2109375 1.183594,0 2.015625,-0.62109375 2.015625,-1.51171875 0,-0.28125 -0.08203,-0.4804687 -0.246094,-0.65625 C 47.15332,-2.2265625 46.860352,-2.3320313 46.063477,-2.484375 45.325195,-2.625 45.079102,-2.8125 45.079102,-3.2226563 c 0,-0.4453125 0.304687,-0.703125 0.867187,-0.703125 0.609375,0 1.066406,0.3164063 1.066406,0.7382813 v 0.2109375 h 0.246094 c 0.01172,-0.5273438 0.02344,-0.7382813 0.04687,-1.0195313 -0.492187,-0.1640624 -0.796875,-0.2226562 -1.171875,-0.2226562 -1.042969,0 -1.6875,0.4921875 -1.6875,1.3007812 0,0.4453125 0.199219,0.7265625 0.621094,0.9257813 0.234375,0.1054688 0.714844,0.2578125 1.324219,0.3867188 0.410156,0.09375 0.574218,0.2695312 0.574218,0.6210937 0,0.4921875 -0.445312,0.83203125 -1.078125,0.83203125 -0.667968,0 -1.125,-0.31640625 -1.125,-0.76171875 v -0.375 z m 12.717774,-2.9296875 0.28125,-1.7695312 c 0.01172,-0.011719 0.01172,-0.035156 0.01172,-0.046875 0,-0.1757813 -0.199218,-0.3515625 -0.386718,-0.3515625 -0.199219,0 -0.386719,0.1757812 -0.386719,0.3515625 v 0.046875 l 0.292969,1.7695312 z m 1.628906,0 0.28125,-1.7695312 c 0.01172,-0.011719 0.01172,-0.035156 0.01172,-0.046875 0,-0.1757813 -0.199219,-0.3515625 -0.386719,-0.3515625 -0.199219,0 -0.386719,0.1757812 -0.386719,0.3515625 v 0.046875 l 0.292969,1.7695312 z m 7.68457,1.4179687 c 0,-0.4101562 0.04687,-0.7851562 0.128907,-1.1015625 C 66.27832,-4.125 65.973633,-4.21875 65.598633,-4.21875 c -0.445313,0 -0.9375,0.1640625 -1.476563,0.515625 -0.632812,0.3867187 -0.960937,1.0078125 -0.960937,1.8164063 0,1.2070312 0.84375,2.06249995 2.0625,2.06249995 0.46875,0 1.136719,-0.1640625 1.230469,-0.3046875 l 0.1875,-0.28125 -0.08203,-0.140625 c -0.351562,0.1875 -0.621093,0.2578125 -0.949218,0.2578125 -0.996094,0 -1.652344,-0.77343745 -1.652344,-1.95703125 0,-0.9609375 0.445312,-1.5 1.253906,-1.5 0.410156,0 0.832031,0.1640625 0.996094,0.3984375 l 0.05859,0.5507812 z m 6.09375,-1.3828124 -0.08203,-0.035156 c -0.433594,0.1875 -0.925781,0.3164062 -1.394531,0.3632812 v 0.2578125 h 0.328125 c 0.375,0.011719 0.386719,0.046875 0.398437,0.65625 v 2.0273438 c 0,0.5859375 -0.02344,0.62109375 -0.339843,0.64453125 l -0.410157,0.0234375 V 0.0234375 C 71.739258,0.01171875 71.99707,0 72.231445,0 c 0.234375,0 0.492188,0.01171875 1.125,0.0234375 v -0.26953125 l -0.410156,-0.0234375 C 72.629883,-0.3046875 72.618164,-0.328125 72.606445,-0.9140625 Z M 72.196289,-6.1875 c -0.269531,0 -0.503906,0.234375 -0.503906,0.5039063 0,0.2695312 0.234375,0.5039062 0.492187,0.5039062 0.269532,0 0.503907,-0.234375 0.503907,-0.5039062 0,-0.2460938 -0.234375,-0.5039063 -0.492188,-0.5039063 z m 4.148438,5.94140625 V 0.0234375 C 76.942383,0.01171875 77.200195,0 77.458008,0 c 0.210937,0 0.539062,0.01171875 1.277344,0.0234375 v -0.26953125 l -0.46875,-0.0234375 c -0.410157,-0.0234375 -0.421875,-0.0351563 -0.421875,-0.64453125 v -1.546875 c 0,-0.5507813 0.363281,-0.9960938 0.808593,-0.9960938 0.269532,0 0.457032,0.1289063 0.597657,0.4101563 h 0.1875 L 79.520508,-4.125 c -0.105469,-0.058594 -0.257813,-0.09375 -0.421875,-0.09375 -0.269531,0 -0.550781,0.140625 -0.75,0.3632812 l -0.503906,0.5976563 v -0.9257812 l -0.08203,-0.035156 c -0.433593,0.1875 -0.925781,0.3164062 -1.394531,0.3632812 v 0.2578125 h 0.328125 c 0.375,0.011719 0.386719,0.046875 0.398438,0.65625 v 2.0273438 c -0.01172,0.5859375 -0.02344,0.62109375 -0.339844,0.64453125 z M 86.853516,-2.8007813 c 0,-0.4101562 0.04687,-0.7851562 0.128906,-1.1015625 C 86.619141,-4.125 86.314453,-4.21875 85.939453,-4.21875 c -0.445312,0 -0.9375,0.1640625 -1.476562,0.515625 -0.632813,0.3867187 -0.960938,1.0078125 -0.960938,1.8164063 0,1.2070312 0.84375,2.06249995 2.0625,2.06249995 0.46875,0 1.136719,-0.1640625 1.230469,-0.3046875 l 0.1875,-0.28125 -0.08203,-0.140625 c -0.351563,0.1875 -0.621094,0.2578125 -0.949219,0.2578125 -0.996094,0 -1.652344,-0.77343745 -1.652344,-1.95703125 0,-0.9609375 0.445313,-1.5 1.253906,-1.5 0.410157,0 0.832032,0.1640625 0.996094,0.3984375 l 0.05859,0.5507812 z m 4.59375,2.55468755 V 0.0234375 C 92.080078,0.01171875 92.337891,0 92.572266,0 c 0.234375,0 0.492187,0.01171875 1.125,0.0234375 v -0.26953125 l -0.410157,-0.0234375 C 92.970703,-0.3046875 92.958984,-0.328125 92.947266,-0.9140625 v -5.5429687 l -0.08203,-0.082031 c -0.386718,0.1523438 -0.691406,0.234375 -1.394531,0.3398438 v 0.2460937 h 0.503906 c 0.152344,0 0.222657,0.1054688 0.222657,0.375 v 4.6640625 c -0.01172,0.5859375 -0.02344,0.62109375 -0.339844,0.64453125 z m 8.988284,-0.38671875 -0.11719,-0.0820313 c -0.574219,0.33984375 -0.785157,0.421875 -1.171876,0.421875 -0.585937,0 -1.078125,-0.26953125 -1.324218,-0.703125 -0.175782,-0.2929687 -0.234375,-0.5507812 -0.257813,-1.078125 h 1.324219 c 0.644531,0 1.054687,-0.035156 1.628908,-0.1171875 0,-0.1289062 0.0117,-0.2109375 0.0117,-0.3164062 0,-1.0429688 -0.667972,-1.7109375 -1.687503,-1.7109375 -0.316406,0 -0.703125,0.1171875 -1.078125,0.328125 -0.738281,0.4335937 -1.03125,0.984375 -1.03125,1.9335938 0,0.5507812 0.128906,1.0429687 0.375,1.38281245 0.363281,0.48046875 0.960937,0.75 1.640625,0.75 0.339844,0 0.667969,-0.0703125 1.03125,-0.234375 0.234373,-0.09375 0.433593,-0.2109375 0.468753,-0.26953125 z m -0.703128,-1.7695313 c -0.457031,0.011719 -0.679688,0.023437 -1.007813,0.023437 -0.421875,0 -0.65625,-0.011719 -1.136718,-0.046875 0,-0.421875 0.03516,-0.6210937 0.152343,-0.8671875 0.1875,-0.3867187 0.5625,-0.6328125 0.996094,-0.6328125 0.304688,0 0.539063,0.1171875 0.703125,0.3632813 0.199219,0.2929687 0.257813,0.5507812 0.292969,1.1601567 z m 6.500978,1.40625005 c -0.26953,0 -0.51563,0.24609375 -0.51563,0.515625 0,0.28125 0.2461,0.52734375 0.50391,0.52734375 0.29297,0 0.55078,-0.24609375 0.55078,-0.52734375 0,-0.26953125 -0.25781,-0.515625 -0.53906,-0.515625 z m 3.45703,3.25781255 V 2.53125 c 0.62109,-0.023437 0.87891,-0.023437 1.125,-0.023437 0.24609,0 0.50391,0 1.125,0.023437 V 2.2617188 l -0.41016,-0.035156 c -0.3164,-0.035156 -0.32812,-0.046875 -0.33984,-0.6445313 v -1.6992187 c 0.28125,0.1640625 0.5625,0.22265625 0.97266,0.22265625 0.26953,0 0.49218,-0.046875 0.63281,-0.140625 l 1.03125,-0.66796875 c 0.35156,-0.234375 0.77344,-1.1601562 0.77344,-1.734375 0,-0.9960938 -0.82032,-1.78125 -1.86329,-1.78125 -0.33984,0 -0.65625,0.082031 -0.80859,0.2226562 l -0.73828,0.6796875 v -0.8671874 l -0.082,-0.035156 c -0.4336,0.1875 -0.92578,0.3164062 -1.39453,0.3632812 v 0.2578125 h 0.32812 c 0.375,0.011719 0.38672,0.046875 0.39844,0.65625 v 4.5234375 c -0.0117,0.5976563 -0.0234,0.6093751 -0.33984,0.6445313 z m 1.5,-5.0156251 c 0,-0.1289062 0.0469,-0.2226562 0.16406,-0.375 0.25781,-0.3398437 0.64453,-0.5039062 1.07813,-0.5039062 0.85547,0 1.39453,0.5859375 1.39453,1.5234375 0,1.0078125 -0.60938,1.7578125 -1.41797,1.7578125 -0.49219,0 -0.86719,-0.1640625 -1.21875,-0.52734375 z m 9.43652,2.50781255 V 0.0234375 C 121.25977,0.01171875 121.51758,0 121.75195,0 c 0.23438,0 0.49219,0.01171875 1.125,0.0234375 v -0.26953125 l -0.41015,-0.0234375 c -0.31641,-0.0351563 -0.32813,-0.0585938 -0.33985,-0.64453125 v -5.5429687 l -0.082,-0.082031 c -0.38672,0.1523438 -0.6914,0.234375 -1.39453,0.3398438 v 0.2460937 h 0.50391 c 0.15234,0 0.22265,0.1054688 0.22265,0.375 v 4.6640625 c -0.0117,0.5859375 -0.0234,0.62109375 -0.33984,0.64453125 z M 128.18262,-4.21875 c -1.3125,0 -2.21485,0.9257812 -2.21485,2.2617188 0,1.2773437 0.78516,2.13281245 1.95703,2.13281245 1.38282,0 2.37891,-0.9609375 2.37891,-2.30859375 0,-1.21875 -0.89062,-2.0859375 -2.12109,-2.0859375 z m -0.16407,0.2929687 c 0.84375,0 1.44141,0.9023438 1.44141,2.1210938 0,1.04296875 -0.44531,1.6875 -1.18359,1.6875 -0.87891,0 -1.47657,-0.8671875 -1.47657,-2.1445313 0,-1.078125 0.4336,-1.6640625 1.21875,-1.6640625 z m 8.36426,0.4921875 V -0.84375 c 0,0.66796875 0.30469,0.94921875 0.9961,0.94921875 0.19921,0 0.42187,-0.046875 0.46875,-0.10546875 l 0.43359,-0.48046875 -0.11719,-0.15234375 c -0.23437,0.140625 -0.35156,0.17578125 -0.52734,0.17578125 -0.35156,0 -0.49219,-0.1875 -0.49219,-0.62109375 v -2.3554688 h 1.14844 l 0.082,-0.4921875 -1.23047,0.058594 V -4.207031 c 0,-0.375 0.0234,-0.7617188 0.0937,-1.2773438 l -0.10547,-0.1054687 c -0.22265,0.140625 -0.48047,0.2578125 -0.76172,0.3398437 0.0234,0.2578125 0.0352,0.4335938 0.0352,0.7148438 v 0.6328124 l -0.70313,0.3164063 v 0.1875 z m 5.93848,-0.7851562 0.28125,-1.7695312 c 0.0117,-0.011719 0.0117,-0.035156 0.0117,-0.046875 0,-0.1757813 -0.19922,-0.3515625 -0.38672,-0.3515625 -0.19922,0 -0.38672,0.1757812 -0.38672,0.3515625 v 0.046875 l 0.29297,1.7695312 z m 1.62891,0 0.28125,-1.7695312 c 0.0117,-0.011719 0.0117,-0.035156 0.0117,-0.046875 0,-0.1757813 -0.19921,-0.3515625 -0.38671,-0.3515625 -0.19922,0 -0.38672,0.1757812 -0.38672,0.3515625 v 0.046875 l 0.29297,1.7695312 z m 5.21191,3.22265625 c -0.26953,0 -0.51563,0.24609375 -0.51563,0.515625 0,0.28125 0.2461,0.52734375 0.50391,0.52734375 0.29297,0 0.55078,-0.24609375 0.55078,-0.52734375 0,-0.26953125 -0.25781,-0.515625 -0.53906,-0.515625 z M 1.4414062,-81.246094 v 0.269532 C 1.96875,-80.988281 2.2851563,-81 2.7539063,-81 c 0.46875,0 0.796875,0.01172 1.3242187,0.02344 v -0.269532 l -0.4335937,-0.02344 C 3.234375,-81.292969 3.1992188,-81.363281 3.1875,-82.078125 v -3.808594 c 0,-0.457031 0.011719,-0.644531 0.035156,-0.902343 h 1.3945312 c 0.2578125,0.01172 0.3398437,0.07031 0.3632812,0.304687 l 0.035156,0.703125 h 0.28125 c 0,-0.585937 0.011719,-0.9375 0.058594,-1.441406 l -1.1953125,0.01172 c -0.5156249,0.01172 -0.6093749,0.01172 -0.7499999,0.01172 H 1.9921875 c -0.1054688,0 -0.5859375,-0.01172 -1.21875,-0.02344 h -0.609375 c 0.046875,0.503906 0.0585938,0.855469 0.0585938,1.441406 h 0.28125 l 0.0351563,-0.703125 c 0.0234375,-0.234375 0.09375,-0.292969 0.36328125,-0.304687 H 2.296875 c 0.023437,0.28125 0.035156,0.492187 0.035156,0.902343 v 3.808594 c -0.011719,0.726563 -0.046875,0.785156 -0.4570313,0.808594 z m 4.1337891,0 v 0.269532 C 6.1494141,-80.988281 6.3955078,-81 6.6884766,-81 c 0.28125,0 0.5390625,0.01172 1.1132812,0.02344 v -0.269532 l -0.3984375,-0.02344 c -0.3164062,-0.02344 -0.3398437,-0.05859 -0.3398437,-0.644531 v -1.910157 c 0,-0.410156 0.5976562,-0.84375 1.1484375,-0.84375 0.5976562,0 0.9960937,0.445313 0.9960937,1.136719 v 2.554688 C 9.6181641,-80.988281 9.7587891,-81 9.9228516,-81 c 0.1289064,0 0.2929684,0.01172 0.7382814,0.02344 v -0.269532 l -0.363281,-0.02344 c -0.3164067,-0.02344 -0.3281254,-0.05859 -0.3398442,-0.644531 v -1.746094 c 0,-1.042969 -0.4921875,-1.558594 -1.5,-1.558594 -0.328125,0 -0.515625,0.04687 -0.7148437,0.222656 l -0.6796875,0.597657 v -3.058594 l -0.082031,-0.08203 c -0.3984375,0.152343 -0.6914062,0.234375 -1.40625,0.339843 v 0.246094 h 0.5039063 c 0.1640625,0 0.234375,0.105469 0.234375,0.375 v 4.664063 c -0.011719,0.585937 -0.023437,0.621093 -0.3398438,0.644531 z m 6.8671877,-3.9375 -0.08203,-0.03516 c -0.433594,0.1875 -0.925782,0.316406 -1.394532,0.363281 v 0.257813 h 0.328125 c 0.375,0.01172 0.386719,0.04687 0.398438,0.65625 v 2.027344 c 0,0.585937 -0.02344,0.621093 -0.339844,0.644531 l -0.410156,0.02344 v 0.269532 c 0.632812,-0.01172 0.890625,-0.02344 1.125,-0.02344 0.234375,0 0.492187,0.01172 1.125,0.02344 v -0.269532 l -0.410156,-0.02344 c -0.316407,-0.03516 -0.328125,-0.05859 -0.339844,-0.644531 z M 12.032227,-87.1875 c -0.269532,0 -0.503907,0.234375 -0.503907,0.503906 0,0.269532 0.234375,0.503907 0.492188,0.503907 0.269531,0 0.503906,-0.234375 0.503906,-0.503907 0,-0.246093 -0.234375,-0.503906 -0.492187,-0.503906 z m 1.705078,4.898438 c 0,0.621093 -0.02344,0.890625 -0.09375,1.253906 0.480468,0.152344 0.820312,0.210937 1.230468,0.210937 1.183594,0 2.015625,-0.621093 2.015625,-1.511718 0,-0.28125 -0.08203,-0.480469 -0.246093,-0.65625 -0.234375,-0.234375 -0.527344,-0.339844 -1.324219,-0.492188 -0.738281,-0.140625 -0.984375,-0.328125 -0.984375,-0.738281 0,-0.445313 0.304687,-0.703125 0.867187,-0.703125 0.609375,0 1.066407,0.316406 1.066407,0.738281 v 0.210938 h 0.246093 c 0.01172,-0.527344 0.02344,-0.738282 0.04687,-1.019532 -0.492187,-0.164062 -0.796875,-0.222656 -1.171875,-0.222656 -1.042968,0 -1.6875,0.492188 -1.6875,1.300781 0,0.445313 0.199219,0.726563 0.621094,0.925782 0.234375,0.105468 0.714844,0.257812 1.324219,0.386718 0.410156,0.09375 0.574219,0.269532 0.574219,0.621094 0,0.492188 -0.445313,0.832031 -1.078125,0.832031 -0.667969,0 -1.125,-0.316406 -1.125,-0.761718 v -0.375 z m 7.391601,-2.894532 -0.08203,-0.03516 c -0.433594,0.1875 -0.925781,0.316406 -1.394531,0.363281 v 0.257813 h 0.328125 c 0.375,0.01172 0.386718,0.04687 0.398437,0.65625 v 2.027344 c 0,0.585937 -0.02344,0.621093 -0.339844,0.644531 l -0.410156,0.02344 v 0.269532 c 0.632813,-0.01172 0.890625,-0.02344 1.125,-0.02344 0.234375,0 0.492188,0.01172 1.125,0.02344 v -0.269532 l -0.410156,-0.02344 c -0.316406,-0.03516 -0.328125,-0.05859 -0.339844,-0.644531 z M 20.71875,-87.1875 c -0.269531,0 -0.503906,0.234375 -0.503906,0.503906 0,0.269532 0.234375,0.503907 0.492187,0.503907 0.269531,0 0.503906,-0.234375 0.503906,-0.503907 0,-0.246093 -0.234375,-0.503906 -0.492187,-0.503906 z m 1.702148,4.898438 c 0,0.621093 -0.02344,0.890625 -0.09375,1.253906 0.480469,0.152344 0.820313,0.210937 1.230469,0.210937 1.183594,0 2.015625,-0.621093 2.015625,-1.511718 0,-0.28125 -0.08203,-0.480469 -0.246094,-0.65625 -0.234375,-0.234375 -0.527343,-0.339844 -1.324218,-0.492188 -0.738282,-0.140625 -0.984375,-0.328125 -0.984375,-0.738281 0,-0.445313 0.304687,-0.703125 0.867187,-0.703125 0.609375,0 1.066406,0.316406 1.066406,0.738281 v 0.210938 h 0.246094 c 0.01172,-0.527344 0.02344,-0.738282 0.04687,-1.019532 -0.492187,-0.164062 -0.796875,-0.222656 -1.171875,-0.222656 -1.042969,0 -1.6875,0.492188 -1.6875,1.300781 0,0.445313 0.199219,0.726563 0.621094,0.925782 0.234375,0.105468 0.714844,0.257812 1.324219,0.386718 0.410156,0.09375 0.574218,0.269532 0.574218,0.621094 0,0.492188 -0.445312,0.832031 -1.078125,0.832031 -0.667968,0 -1.125,-0.316406 -1.125,-0.761718 v -0.375 z m 6.067383,0 c 0,0.621093 -0.02344,0.890625 -0.09375,1.253906 0.480469,0.152344 0.820313,0.210937 1.230469,0.210937 1.183594,0 2.015625,-0.621093 2.015625,-1.511718 0,-0.28125 -0.08203,-0.480469 -0.246094,-0.65625 -0.234375,-0.234375 -0.527344,-0.339844 -1.324219,-0.492188 -0.738281,-0.140625 -0.984375,-0.328125 -0.984375,-0.738281 0,-0.445313 0.304688,-0.703125 0.867188,-0.703125 0.609375,0 1.066406,0.316406 1.066406,0.738281 v 0.210938 h 0.246094 c 0.01172,-0.527344 0.02344,-0.738282 0.04687,-1.019532 -0.492188,-0.164062 -0.796875,-0.222656 -1.171875,-0.222656 -1.042969,0 -1.6875,0.492188 -1.6875,1.300781 0,0.445313 0.199219,0.726563 0.621094,0.925782 0.234375,0.105468 0.714843,0.257812 1.324218,0.386718 0.410157,0.09375 0.574219,0.269532 0.574219,0.621094 0,0.492188 -0.445312,0.832031 -1.078125,0.832031 -0.667969,0 -1.125,-0.316406 -1.125,-0.761718 v -0.375 z m 3.594727,1.042968 v 0.269532 C 32.71582,-80.988281 32.973633,-81 33.231445,-81 c 0.28125,0 0.515625,0.01172 1.066407,0.02344 v -0.269532 l -0.375,-0.02344 c -0.316407,-0.02344 -0.328125,-0.05859 -0.328125,-0.644531 v -1.910157 c 0,-0.410156 0.585937,-0.84375 1.125,-0.84375 0.492187,0 0.820312,0.457032 0.820312,1.136719 v 1.617188 c 0,0.585937 -0.02344,0.621093 -0.328125,0.644531 l -0.421875,0.02344 v 0.269532 C 35.422852,-80.98828 35.680664,-81 35.915039,-81 c 0.234375,0 0.492188,0.01172 1.125,0.02344 v -0.269532 l -0.410156,-0.02344 c -0.316406,-0.03516 -0.328125,-0.05859 -0.328125,-0.644531 v -1.910157 c 0,-0.410156 0.585937,-0.84375 1.125,-0.84375 0.492187,0 0.820312,0.457032 0.820312,1.136719 v 2.554688 C 38.657227,-80.988281 38.80957,-81 38.961914,-81 c 0.140625,0 0.304688,0.01172 0.796875,0.02344 v -0.269532 l -0.421875,-0.02344 c -0.316406,-0.03516 -0.316406,-0.05859 -0.328125,-0.644531 v -1.863282 c 0,-0.890625 -0.527344,-1.441406 -1.347656,-1.441406 -0.328125,0 -0.574219,0.07031 -0.738281,0.222656 l -0.691407,0.609375 c -0.28125,-0.597656 -0.644531,-0.832031 -1.277343,-0.832031 -0.328125,0 -0.585938,0.07031 -0.738282,0.222656 l -0.621093,0.574219 v -0.761719 l -0.08203,-0.03516 c -0.445312,0.1875 -0.9375,0.316406 -1.40625,0.363281 v 0.257813 h 0.328125 c 0.375,0.01172 0.386719,0.04687 0.398438,0.65625 v 2.027344 c -0.01172,0.585937 -0.02344,0.621093 -0.328125,0.644531 z m 10.722656,-0.492187 -0.04687,0.761719 C 43.204102,-80.988281 43.333008,-81 43.461914,-81 c 0.117188,0 0.164063,0 0.480469,0.02344 h 0.1875 v -0.269532 l -0.351563,-0.01172 c -0.234375,-0.03516 -0.246093,-0.05859 -0.257812,-0.527344 v -1.640625 c 0,-1.3125 -0.375,-1.792969 -1.417969,-1.792969 -0.398437,0 -0.75,0.09375 -1.089844,0.304688 l -0.480468,0.28125 v 0.585937 l 0.234375,0.07031 0.117187,-0.28125 c 0.1875,-0.421875 0.28125,-0.480469 0.691406,-0.480469 0.855469,0 1.207032,0.328125 1.230469,1.148437 l -0.890625,0.164063 c -1.230469,0.222656 -1.734375,0.644531 -1.734375,1.441406 0,0.691406 0.410156,1.089844 1.125,1.089844 0.175781,0 0.316406,-0.02344 0.386719,-0.07031 z m 0,-0.375 c -0.257812,0.363281 -0.832031,0.703125 -1.183594,0.703125 -0.363281,0 -0.667968,-0.316406 -0.667968,-0.714844 0,-0.328125 0.175781,-0.644531 0.433593,-0.820312 0.234375,-0.128907 0.726563,-0.257813 1.417969,-0.363282 z m 1.769531,0.867187 v 0.269532 C 45.208008,-80.988281 45.46582,-81 45.700195,-81 c 0.234375,0 0.492188,0.01172 1.125,0.02344 v -0.269532 l -0.410156,-0.02344 c -0.316406,-0.03516 -0.328125,-0.05859 -0.339844,-0.644531 v -5.542969 l -0.08203,-0.08203 c -0.386719,0.152343 -0.691406,0.234375 -1.394531,0.339843 v 0.246094 h 0.503906 c 0.152344,0 0.222656,0.105469 0.222656,0.375 v 4.664063 c -0.01172,0.585937 -0.02344,0.621093 -0.339843,0.644531 z m 2.619141,0 v 0.269532 c 0.632812,-0.01172 0.890625,-0.02344 1.125,-0.02344 0.234375,0 0.492187,0.01172 1.125,0.02344 v -0.269532 l -0.410156,-0.02344 c -0.316407,-0.03516 -0.328125,-0.05859 -0.339844,-0.644531 v -5.542969 l -0.08203,-0.08203 c -0.386719,0.152343 -0.691407,0.234375 -1.394532,0.339843 v 0.246094 h 0.503907 c 0.152343,0 0.222656,0.105469 0.222656,0.375 v 4.664063 c -0.01172,0.585937 -0.02344,0.621093 -0.339844,0.644531 z m 4.751953,2.507813 v 0.269531 c 0.621094,-0.02344 0.878906,-0.02344 1.125,-0.02344 0.246094,0 0.503906,0 1.125,0.02344 v -0.269531 l -0.410156,-0.03516 c -0.316406,-0.03516 -0.328125,-0.04687 -0.339844,-0.644532 v -1.699218 c 0.28125,0.164062 0.5625,0.222656 0.972656,0.222656 0.269532,0 0.492188,-0.04687 0.632813,-0.140625 l 1.03125,-0.667969 c 0.351562,-0.234375 0.773437,-1.160156 0.773437,-1.734375 0,-0.996094 -0.820312,-1.78125 -1.863281,-1.78125 -0.339844,0 -0.65625,0.08203 -0.808594,0.222656 l -0.738281,0.679688 v -0.867188 l -0.08203,-0.03516 c -0.433594,0.1875 -0.925781,0.316406 -1.394531,0.363281 v 0.257813 h 0.328125 c 0.375,0.01172 0.386718,0.04687 0.398437,0.65625 v 4.523437 c -0.01172,0.597657 -0.02344,0.609375 -0.339844,0.644532 z m 1.5,-5.015625 c 0,-0.128906 0.04687,-0.222656 0.164063,-0.375 0.257812,-0.339844 0.644531,-0.503906 1.078125,-0.503906 0.855468,0 1.394531,0.585937 1.394531,1.523437 0,1.007813 -0.609375,1.757813 -1.417969,1.757813 -0.492187,0 -0.867187,-0.164063 -1.21875,-0.527344 z m 4.025391,2.507812 v 0.269532 C 58.069336,-80.988281 58.327148,-81 58.584961,-81 c 0.210937,0 0.539062,0.01172 1.277344,0.02344 v -0.269532 l -0.46875,-0.02344 c -0.410157,-0.02344 -0.421875,-0.03516 -0.421875,-0.644531 v -1.546875 c 0,-0.550782 0.363281,-0.996094 0.808593,-0.996094 0.269532,0 0.457032,0.128906 0.597657,0.410156 h 0.1875 l 0.08203,-1.078125 c -0.105469,-0.05859 -0.257813,-0.09375 -0.421875,-0.09375 -0.269531,0 -0.550781,0.140625 -0.75,0.363281 l -0.503906,0.597657 v -0.925782 l -0.08203,-0.03516 c -0.433593,0.1875 -0.925781,0.316406 -1.394531,0.363281 v 0.257813 h 0.328125 c 0.375,0.01172 0.386719,0.04687 0.398438,0.65625 v 2.027344 c -0.01172,0.585937 -0.02344,0.621093 -0.339844,0.644531 z m 5.05664,-3.9375 -0.08203,-0.03516 c -0.433594,0.1875 -0.925781,0.316406 -1.394531,0.363281 v 0.257813 h 0.328125 c 0.375,0.01172 0.386719,0.04687 0.398437,0.65625 v 2.027344 c 0,0.585937 -0.02344,0.621093 -0.339843,0.644531 l -0.410157,0.02344 v 0.269532 C 61.661133,-80.988281 61.918945,-81 62.15332,-81 c 0.234375,0 0.492188,0.01172 1.125,0.02344 v -0.269532 l -0.410156,-0.02344 c -0.316406,-0.03516 -0.328125,-0.05859 -0.339844,-0.644531 z M 62.118164,-87.1875 c -0.269531,0 -0.503906,0.234375 -0.503906,0.503906 0,0.269532 0.234375,0.503907 0.492187,0.503907 0.269532,0 0.503907,-0.234375 0.503907,-0.503907 0,-0.246093 -0.234375,-0.503906 -0.492188,-0.503906 z m 5.033203,6.210938 C 67.561523,-80.988281 67.702148,-81 67.866211,-81 c 0.128906,0 0.292969,0.01172 0.738281,0.02344 v -0.269532 l -0.363281,-0.02344 c -0.316406,-0.02344 -0.328125,-0.05859 -0.339844,-0.644531 v -1.746094 c 0,-1.042969 -0.492187,-1.558594 -1.5,-1.558594 -0.328125,0 -0.515625,0.04687 -0.714844,0.222656 l -0.679687,0.597657 v -0.785157 l -0.08203,-0.03516 c -0.433594,0.1875 -0.9375,0.316406 -1.40625,0.363281 v 0.257813 h 0.339843 c 0.363282,0.01172 0.386719,0.04687 0.398438,0.65625 v 2.027344 c 0,0.585937 -0.03516,0.621093 -0.339844,0.644531 l -0.398437,0.02344 v 0.269532 C 64.092773,-80.988281 64.338867,-81 64.631836,-81 c 0.28125,0 0.539062,0.01172 1.113281,0.02344 v -0.269532 l -0.398437,-0.02344 c -0.316407,-0.02344 -0.339844,-0.05859 -0.339844,-0.644531 v -1.910157 c 0,-0.410156 0.597656,-0.84375 1.148437,-0.84375 0.597657,0 0.996094,0.445313 0.996094,1.136719 z m 2.425781,-3.457032 v 2.589844 c 0,0.667969 0.304688,0.949219 0.996094,0.949219 0.199219,0 0.421875,-0.04687 0.46875,-0.105469 l 0.433594,-0.480469 -0.117188,-0.152343 c -0.234375,0.140625 -0.351562,0.175781 -0.527343,0.175781 -0.351563,0 -0.492188,-0.1875 -0.492188,-0.621094 v -2.355469 h 1.148438 l 0.08203,-0.492187 -1.230469,0.05859 v -0.339844 c 0,-0.375 0.02344,-0.761719 0.09375,-1.277344 l -0.105469,-0.105469 c -0.222656,0.140625 -0.480468,0.257813 -0.761718,0.339844 0.02344,0.257813 0.03516,0.433594 0.03516,0.714844 v 0.632812 l -0.703125,0.316407 v 0.1875 z m 3.166993,2.4375 c -0.269532,0 -0.515625,0.246094 -0.515625,0.515625 0,0.28125 0.246093,0.527344 0.503906,0.527344 0.292969,0 0.550781,-0.246094 0.550781,-0.527344 0,-0.269531 -0.257812,-0.515625 -0.539062,-0.515625 z m 0,0"
       style="fill:#000000;fill-opacity:1;fill-rule:nonzero;stroke:none"
       aria-label="This is &quot;circle.plot&quot;.&#10;This is small print."
       transform="matrix(1.3333333,0,0,1.3333333,180,660)" />
  </g>
</svg>
